<svg width="322" height="322" viewBox="0 0 322 322" fill="none" xmlns="http://www.w3.org/2000/svg">
<path d="M285.398 160.236C285.398 228.85 229.776 284.473 161.162 284.473C92.5483 284.473 36.9258 228.85 36.9258 160.236C36.9258 91.6225 92.5483 36 161.162 36C229.776 36 285.398 91.6225 285.398 160.236Z" fill="#E2E4E9"/>
<path d="M113.453 207.098C104.881 207.098 97.9316 200.086 97.9316 191.437C97.9316 182.788 104.881 175.777 113.453 175.777C122.025 175.777 128.974 182.788 128.974 191.437C128.974 200.086 122.025 207.098 113.453 207.098ZM113.487 191.372C114.632 191.372 115.561 190.447 115.561 189.306C115.561 188.165 114.632 187.241 113.487 187.241C112.341 187.241 111.413 188.165 111.413 189.306C111.413 190.447 112.341 191.372 113.487 191.372ZM113.487 192.404C111.411 192.404 109.728 194.081 109.728 196.148H117.246C117.246 194.081 115.563 192.404 113.487 192.404Z" fill="#E2E2E2"/>
<path d="M237.808 91.1189H83.3765C78.6672 91.1189 74.8496 94.9322 74.8496 99.6362V211.212C74.8496 219.73 74.8496 219.73 83.3765 219.73H237.808C246.334 219.73 246.334 219.73 246.334 211.212V99.6362C246.334 94.9322 242.517 91.1189 237.808 91.1189Z" fill="white"/>
<path d="M100.633 209.723C92.0604 209.723 85.1113 202.711 85.1113 194.062C85.1113 185.413 92.0604 178.402 100.633 178.402C109.205 178.402 116.154 185.413 116.154 194.062C116.154 202.711 109.205 209.723 100.633 209.723ZM100.666 193.996C101.812 193.996 102.74 193.072 102.74 191.931C102.74 190.79 101.812 189.865 100.666 189.865C99.5211 189.865 98.5926 190.79 98.5926 191.931C98.5926 193.072 99.5211 193.996 100.666 193.996ZM100.666 195.029C98.5905 195.029 96.9076 196.705 96.9076 198.773H104.425C104.425 196.705 102.742 195.029 100.666 195.029Z" fill="#667085"/>
<path d="M74.8496 98.3925C74.8496 91.1189 74.8496 91.1189 82.1294 91.1189H239.386C246.666 91.1189 246.666 91.1189 246.666 98.3925V105.666H74.8496V98.3925Z" fill="#667085"/>
<rect x="206.656" y="152.362" width="25.3722" height="8.74903" rx="1" fill="#3E7BFA"/>
<rect x="129.666" y="175.985" width="69.9923" height="6.12432" rx="1" fill="#667085"/>
<rect x="88.5449" y="113.866" width="111.113" height="47.2448" rx="1" fill="#E2E2E2"/>
<rect x="129.666" y="189.108" width="87.4903" height="6.12432" rx="1" fill="#E2E2E2"/>
<rect x="129.666" y="202.232" width="102.364" height="6.12432" rx="1" fill="#E2E2E2"/>
<circle cx="84.1696" cy="99.6247" r="2.62471" fill="#D1D1D1"/>
<circle cx="98.6677" cy="99.6247" r="2.62471" fill="#FFD569"/>
<circle cx="91.4196" cy="99.6247" r="2.62471" fill="#ADB7FF"/>
<circle cx="86.0442" cy="62.045" r="5.42309" stroke="#C7C9D9"/>
<circle cx="88.7362" cy="64.7373" r="5.38462" fill="#3E7BFA"/>
<circle cx="44.9116" cy="141.231" r="1" transform="rotate(45.9703 44.9116 141.231)" fill="#C7C9D9"/>
<circle cx="51.8628" cy="148.421" r="1" transform="rotate(45.9703 51.8628 148.421)" fill="#3E7BFA"/>
<circle cx="58.812" cy="155.611" r="1" transform="rotate(45.9703 58.812 155.611)" fill="#C7C9D9"/>
<circle cx="65.7632" cy="162.8" r="1" transform="rotate(45.9703 65.7632 162.8)" fill="#C7C9D9"/>
<circle cx="72.7124" cy="169.99" r="1" transform="rotate(45.9703 72.7124 169.99)" fill="#C7C9D9"/>
<circle cx="39.3764" cy="146.582" r="1" transform="rotate(45.9703 39.3764 146.582)" fill="#C7C9D9"/>
<circle cx="46.3276" cy="153.772" r="1" transform="rotate(45.9703 46.3276 153.772)" fill="#3E7BFA"/>
<circle cx="53.2768" cy="160.962" r="1" transform="rotate(45.9703 53.2768 160.962)" fill="#C7C9D9"/>
<circle cx="60.228" cy="168.152" r="1" transform="rotate(45.9703 60.228 168.152)" fill="#3E7BFA"/>
<circle cx="67.1772" cy="175.341" r="1" transform="rotate(45.9703 67.1772 175.341)" fill="#3E7BFA"/>
<circle cx="33.8413" cy="151.933" r="1" transform="rotate(45.9703 33.8413 151.933)" fill="#C7C9D9"/>
<circle cx="40.7925" cy="159.123" r="1" transform="rotate(45.9703 40.7925 159.123)" fill="#C7C9D9"/>
<circle cx="47.7417" cy="166.313" r="1" transform="rotate(45.9703 47.7417 166.313)" fill="#3E7BFA"/>
<circle cx="54.6928" cy="173.503" r="1" transform="rotate(45.9703 54.6928 173.503)" fill="#3E7BFA"/>
<circle cx="61.6421" cy="180.693" r="1" transform="rotate(45.9703 61.6421 180.693)" fill="#3E7BFA"/>
<circle cx="28.3042" cy="157.285" r="1" transform="rotate(45.9703 28.3042 157.285)" fill="#C7C9D9"/>
<circle cx="35.2553" cy="164.474" r="1" transform="rotate(45.9703 35.2553 164.474)" fill="#C7C9D9"/>
<circle cx="42.2046" cy="171.664" r="1" transform="rotate(45.9703 42.2046 171.664)" fill="#3E7BFA"/>
<circle cx="49.1557" cy="178.854" r="1" transform="rotate(45.9703 49.1557 178.854)" fill="#C7C9D9"/>
<circle cx="56.105" cy="186.044" r="1" transform="rotate(45.9703 56.105 186.044)" fill="#C7C9D9"/>
<circle cx="22.769" cy="162.636" r="1" transform="rotate(45.9703 22.769 162.636)" fill="#C7C9D9"/>
<circle cx="29.7202" cy="169.825" r="1" transform="rotate(45.9703 29.7202 169.825)" fill="#3E7BFA"/>
<circle cx="36.6694" cy="177.015" r="1" transform="rotate(45.9703 36.6694 177.015)" fill="#C7C9D9"/>
<circle cx="43.6206" cy="184.205" r="1" transform="rotate(45.9703 43.6206 184.205)" fill="#C7C9D9"/>
<circle cx="50.5698" cy="191.395" r="1" transform="rotate(45.9703 50.5698 191.395)" fill="#C7C9D9"/>
<circle cx="17.2339" cy="167.987" r="1" transform="rotate(45.9703 17.2339 167.987)" fill="#C7C9D9"/>
<circle cx="24.185" cy="175.177" r="1" transform="rotate(45.9703 24.185 175.177)" fill="#C7C9D9"/>
<circle cx="31.1343" cy="182.366" r="1" transform="rotate(45.9703 31.1343 182.366)" fill="#C7C9D9"/>
<circle cx="38.0854" cy="189.556" r="1" transform="rotate(45.9703 38.0854 189.556)" fill="#3E7BFA"/>
<circle cx="45.0346" cy="196.746" r="1" transform="rotate(45.9703 45.0346 196.746)" fill="#C7C9D9"/>
<circle cx="243.029" cy="237.353" r="1" fill="#C7C9D9"/>
<circle cx="253.029" cy="237.353" r="1" fill="#C7C9D9"/>
<circle cx="263.029" cy="237.353" r="1" fill="#C7C9D9"/>
<circle cx="273.029" cy="237.353" r="1" fill="#C7C9D9"/>
<circle cx="283.029" cy="237.353" r="1" fill="#C7C9D9"/>
<circle cx="243.029" cy="245.052" r="1" fill="#C7C9D9"/>
<circle cx="253.029" cy="245.052" r="1" fill="#C7C9D9"/>
<circle cx="263.029" cy="245.052" r="1" fill="#C7C9D9"/>
<circle cx="273.029" cy="245.052" r="1" fill="#C7C9D9"/>
<circle cx="283.029" cy="245.052" r="1" fill="#C7C9D9"/>
<circle cx="243.029" cy="252.751" r="1" fill="#C7C9D9"/>
<circle cx="253.029" cy="252.751" r="1" fill="#C7C9D9"/>
<circle cx="263.029" cy="252.751" r="1" fill="#C7C9D9"/>
<circle cx="273.029" cy="252.751" r="1" fill="#C7C9D9"/>
<circle cx="283.029" cy="252.751" r="1" fill="#C7C9D9"/>
<circle cx="243.029" cy="260.45" r="1" fill="#C7C9D9"/>
<circle cx="253.029" cy="260.45" r="1" fill="#C7C9D9"/>
<circle cx="263.029" cy="260.45" r="1" fill="#C7C9D9"/>
<circle cx="273.029" cy="260.45" r="1" fill="#C7C9D9"/>
<circle cx="283.029" cy="260.45" r="1" fill="#C7C9D9"/>
<circle cx="243.029" cy="268.149" r="1" fill="#C7C9D9"/>
<circle cx="253.029" cy="268.149" r="1" fill="#C7C9D9"/>
<circle cx="263.029" cy="268.149" r="1" fill="#C7C9D9"/>
<circle cx="273.029" cy="268.149" r="1" fill="#C7C9D9"/>
<circle cx="283.029" cy="268.149" r="1" fill="#C7C9D9"/>
<circle cx="243.029" cy="275.849" r="1" fill="#C7C9D9"/>
<circle cx="253.029" cy="275.849" r="1" fill="#C7C9D9"/>
<circle cx="263.029" cy="275.849" r="1" fill="#C7C9D9"/>
<circle cx="273.029" cy="275.849" r="1" fill="#C7C9D9"/>
<circle cx="283.029" cy="275.849" r="1" fill="#C7C9D9"/>
<rect x="238.2" y="233.2" width="38.6" height="38.6" stroke="#3E7BFA" stroke-width="0.4"/>
<rect x="79.873" y="233.636" width="20.8543" height="11.6455" transform="rotate(-45 79.873 233.636)" fill="#C6C6C6"/>
<path d="M82.6016 224.072L97.5559 239.027L55.9695 280.613C54.4074 282.175 51.8747 282.175 50.3126 280.613L41.0151 271.316C39.453 269.753 39.453 267.221 41.0151 265.659L82.6016 224.072Z" fill="#C6C6C6"/>
<circle cx="133.862" cy="185.077" r="49.0769" fill="white" fill-opacity="0.24" stroke="#C6C6C6" stroke-width="8"/>
<path fill-rule="evenodd" clip-rule="evenodd" d="M149.455 179.54C150.236 178.758 150.236 177.492 149.455 176.711L145.734 172.99C144.953 172.209 143.687 172.209 142.905 172.99L131.816 184.08L120.791 173.056C120.01 172.275 118.744 172.275 117.963 173.056L114.242 176.777C113.461 177.558 113.461 178.824 114.242 179.605L125.266 190.629L114.297 201.599C113.516 202.38 113.516 203.646 114.297 204.427L118.018 208.148C118.799 208.929 120.065 208.929 120.846 208.148L131.816 197.179L142.851 208.214C143.632 208.995 144.898 208.995 145.679 208.214L149.4 204.493C150.181 203.712 150.181 202.446 149.4 201.665L138.365 190.629L149.455 179.54Z" fill="black"/>
<mask id="path-81-inside-1_914_9396" fill="white">
<path fill-rule="evenodd" clip-rule="evenodd" d="M150.381 172.129C151.162 171.348 151.162 170.082 150.381 169.301L146.66 165.58C145.879 164.799 144.612 164.799 143.831 165.58L132.741 176.67L121.717 165.646C120.936 164.865 119.67 164.865 118.889 165.646L115.168 169.367C114.387 170.148 114.387 171.414 115.168 172.195L126.192 183.219L115.222 194.189C114.441 194.97 114.441 196.236 115.222 197.017L118.943 200.738C119.724 201.519 120.991 201.519 121.772 200.738L132.741 189.769L143.777 200.804C144.558 201.585 145.824 201.585 146.605 200.804L150.326 197.083C151.107 196.302 151.107 195.036 150.326 194.255L139.291 183.219L150.381 172.129Z"/>
</mask>
<path d="M150.381 169.301L151.088 168.594V168.594L150.381 169.301ZM150.381 172.129L149.674 171.422L149.674 171.422L150.381 172.129ZM146.66 165.58L147.367 164.873V164.873L146.66 165.58ZM143.831 165.58L143.124 164.873L143.124 164.873L143.831 165.58ZM132.741 176.67L132.034 177.377L132.741 178.084L133.448 177.377L132.741 176.67ZM121.717 165.646L122.424 164.939L122.424 164.939L121.717 165.646ZM118.889 165.646L118.182 164.939V164.939L118.889 165.646ZM115.168 169.367L114.461 168.66H114.461L115.168 169.367ZM115.168 172.195L114.461 172.902L114.461 172.902L115.168 172.195ZM126.192 183.219L126.899 183.926L127.606 183.219L126.899 182.512L126.192 183.219ZM115.222 194.189L115.929 194.896H115.929L115.222 194.189ZM115.222 197.017L114.515 197.724H114.515L115.222 197.017ZM118.943 200.738L118.236 201.445H118.236L118.943 200.738ZM121.772 200.738L121.065 200.031L121.065 200.031L121.772 200.738ZM132.741 189.769L133.448 189.062L132.741 188.355L132.034 189.062L132.741 189.769ZM146.605 200.804L147.312 201.511L146.605 200.804ZM150.326 194.255L149.619 194.962L149.619 194.962L150.326 194.255ZM139.291 183.219L138.584 182.512L137.877 183.219L138.584 183.926L139.291 183.219ZM149.674 170.008C150.064 170.399 150.064 171.032 149.674 171.422L151.088 172.836C152.259 171.665 152.259 169.765 151.088 168.594L149.674 170.008ZM145.953 166.287L149.674 170.008L151.088 168.594L147.367 164.873L145.953 166.287ZM144.538 166.287C144.929 165.897 145.562 165.897 145.953 166.287L147.367 164.873C146.195 163.701 144.296 163.701 143.124 164.873L144.538 166.287ZM133.448 177.377L144.538 166.287L143.124 164.873L132.034 175.963L133.448 177.377ZM121.01 166.353L132.034 177.377L133.448 175.963L122.424 164.939L121.01 166.353ZM119.596 166.353C119.986 165.962 120.62 165.962 121.01 166.353L122.424 164.939C121.253 163.767 119.353 163.767 118.182 164.939L119.596 166.353ZM115.875 170.074L119.596 166.353L118.182 164.939L114.461 168.66L115.875 170.074ZM115.875 171.488C115.484 171.098 115.484 170.464 115.875 170.074L114.461 168.66C113.289 169.831 113.289 171.731 114.461 172.902L115.875 171.488ZM126.899 182.512L115.875 171.488L114.461 172.902L125.485 183.926L126.899 182.512ZM115.929 194.896L126.899 183.926L125.485 182.512L114.515 193.482L115.929 194.896ZM115.929 196.31C115.539 195.92 115.539 195.286 115.929 194.896L114.515 193.482C113.344 194.653 113.344 196.553 114.515 197.724L115.929 196.31ZM119.65 200.031L115.929 196.31L114.515 197.724L118.236 201.445L119.65 200.031ZM121.065 200.031C120.674 200.422 120.041 200.422 119.65 200.031L118.236 201.445C119.408 202.617 121.307 202.617 122.479 201.445L121.065 200.031ZM132.034 189.062L121.065 200.031L122.479 201.445L133.448 190.476L132.034 189.062ZM144.484 200.097L133.448 189.062L132.034 190.476L143.07 201.511L144.484 200.097ZM145.898 200.097C145.508 200.488 144.874 200.488 144.484 200.097L143.07 201.511C144.241 202.683 146.141 202.683 147.312 201.511L145.898 200.097ZM149.619 196.376L145.898 200.097L147.312 201.511L151.033 197.79L149.619 196.376ZM149.619 194.962C150.01 195.352 150.01 195.985 149.619 196.376L151.033 197.79C152.205 196.619 152.205 194.719 151.033 193.548L149.619 194.962ZM138.584 183.926L149.619 194.962L151.033 193.548L139.998 182.512L138.584 183.926ZM149.674 171.422L138.584 182.512L139.998 183.926L151.088 172.836L149.674 171.422Z" fill="#3E7BFA" mask="url(#path-81-inside-1_914_9396)"/>
<path d="M47.5488 259L62.4839 273.935L55.764 280.655C54.2019 282.217 51.6692 282.217 50.1071 280.655L40.8289 271.377C39.2668 269.815 39.2668 267.282 40.8289 265.72L47.5488 259Z" fill="#667085"/>
<path fill-rule="evenodd" clip-rule="evenodd" d="M248.149 56.7393C248.93 55.9583 248.93 54.6919 248.149 53.9109L245.744 51.5064C244.963 50.7254 243.697 50.7254 242.916 51.5064L234.341 60.0812L225.819 51.5588C225.038 50.7778 223.771 50.7778 222.99 51.5588L220.586 53.9633C219.805 54.7443 219.805 56.0106 220.586 56.7917L229.108 65.3141L220.626 73.7958C219.845 74.5768 219.845 75.8432 220.626 76.6242L223.031 79.0287C223.812 79.8097 225.078 79.8097 225.859 79.0287L234.341 70.547L242.875 79.081C243.656 79.8621 244.923 79.8621 245.704 79.081L248.108 76.6766C248.889 75.8955 248.889 74.6292 248.108 73.8482L239.574 65.3141L248.149 56.7393Z" fill="black"/>
<mask id="path-85-inside-2_914_9396" fill="white">
<path fill-rule="evenodd" clip-rule="evenodd" d="M248.889 50.8187C249.67 50.0376 249.67 48.7713 248.889 47.9902L246.484 45.5858C245.703 44.8047 244.437 44.8047 243.656 45.5858L235.081 54.1606L226.559 45.6382C225.778 44.8571 224.512 44.8571 223.73 45.6382L221.326 48.0426C220.545 48.8237 220.545 50.09 221.326 50.871L229.848 59.3934L221.367 67.8751C220.586 68.6562 220.586 69.9225 221.367 70.7036L223.771 73.108C224.552 73.889 225.819 73.889 226.6 73.108L235.081 64.6263L243.615 73.1604C244.396 73.9414 245.663 73.9414 246.444 73.1604L248.848 70.7559C249.629 69.9749 249.629 68.7086 248.848 67.9275L240.314 59.3934L248.889 50.8187Z"/>
</mask>
<path d="M248.889 47.9902L249.455 47.4245V47.4245L248.889 47.9902ZM248.889 50.8187L249.455 51.3843V51.3843L248.889 50.8187ZM246.484 45.5858L245.919 46.1515V46.1515L246.484 45.5858ZM243.656 45.5858L244.222 46.1515V46.1515L243.656 45.5858ZM235.081 54.1606L234.516 54.7263L235.081 55.2919L235.647 54.7263L235.081 54.1606ZM226.559 45.6382L227.125 45.0725L227.125 45.0725L226.559 45.6382ZM223.73 45.6382L224.296 46.2039L223.73 45.6382ZM221.326 48.0426L220.76 47.4769H220.76L221.326 48.0426ZM221.326 50.871L220.76 51.4367L220.76 51.4367L221.326 50.871ZM229.848 59.3934L230.414 59.9591L230.98 59.3934L230.414 58.8277L229.848 59.3934ZM221.367 67.8751L221.932 68.4408H221.932L221.367 67.8751ZM221.367 70.7036L221.932 70.1379H221.932L221.367 70.7036ZM223.771 73.108L223.205 73.6737H223.205L223.771 73.108ZM226.6 73.108L227.165 73.6737H227.165L226.6 73.108ZM235.081 64.6263L235.647 64.0606L235.081 63.4949L234.516 64.0606L235.081 64.6263ZM243.615 73.1604L244.181 72.5947L243.615 73.1604ZM248.848 67.9275L248.283 68.4932L248.848 67.9275ZM240.314 59.3934L239.748 58.8277L239.183 59.3934L239.748 59.9591L240.314 59.3934ZM248.323 48.5559C248.792 49.0245 248.792 49.7843 248.323 50.253L249.455 51.3843C250.548 50.2909 250.548 48.518 249.455 47.4245L248.323 48.5559ZM245.919 46.1515L248.323 48.5559L249.455 47.4245L247.05 45.0201L245.919 46.1515ZM244.222 46.1515C244.69 45.6828 245.45 45.6828 245.919 46.1515L247.05 45.0201C245.957 43.9266 244.184 43.9266 243.09 45.0201L244.222 46.1515ZM235.647 54.7263L244.222 46.1515L243.09 45.0201L234.516 53.5949L235.647 54.7263ZM225.993 46.2039L234.516 54.7263L235.647 53.5949L227.125 45.0725L225.993 46.2039ZM224.296 46.2039C224.765 45.7352 225.525 45.7352 225.993 46.2039L227.125 45.0725C226.031 43.979 224.258 43.979 223.165 45.0725L224.296 46.2039ZM221.892 48.6083L224.296 46.2039L223.165 45.0725L220.76 47.4769L221.892 48.6083ZM221.892 50.3054C221.423 49.8367 221.423 49.0769 221.892 48.6083L220.76 47.4769C219.667 48.5704 219.667 50.3433 220.76 51.4367L221.892 50.3054ZM230.414 58.8277L221.892 50.3054L220.76 51.4367L229.283 59.9591L230.414 58.8277ZM221.932 68.4408L230.414 59.9591L229.283 58.8277L220.801 67.3094L221.932 68.4408ZM221.932 70.1379C221.464 69.6692 221.464 68.9094 221.932 68.4408L220.801 67.3094C219.708 68.4029 219.708 70.1758 220.801 71.2692L221.932 70.1379ZM224.337 72.5423L221.932 70.1379L220.801 71.2692L223.205 73.6737L224.337 72.5423ZM226.034 72.5423C225.565 73.0109 224.805 73.0109 224.337 72.5423L223.205 73.6737C224.299 74.7672 226.072 74.7671 227.165 73.6737L226.034 72.5423ZM234.516 64.0606L226.034 72.5423L227.165 73.6737L235.647 65.192L234.516 64.0606ZM244.181 72.5947L235.647 64.0606L234.516 65.192L243.05 73.7261L244.181 72.5947ZM245.878 72.5947C245.409 73.0633 244.65 73.0633 244.181 72.5947L243.05 73.7261C244.143 74.8195 245.916 74.8195 247.009 73.7261L245.878 72.5947ZM248.283 70.1903L245.878 72.5947L247.009 73.7261L249.414 71.3216L248.283 70.1903ZM248.283 68.4932C248.751 68.9618 248.751 69.7216 248.283 70.1903L249.414 71.3216C250.507 70.2282 250.507 68.4553 249.414 67.3618L248.283 68.4932ZM239.748 59.9591L248.283 68.4932L249.414 67.3618L240.88 58.8277L239.748 59.9591ZM248.323 50.253L239.748 58.8277L240.88 59.9591L249.455 51.3843L248.323 50.253Z" fill="#3E7BFA" mask="url(#path-85-inside-2_914_9396)"/>
<path d="M278.597 136.702C281.4 137.744 284.502 137.63 287.22 136.385C289.939 135.14 292.051 132.866 293.093 130.063C294.135 127.261 294.021 124.159 292.776 121.44C291.531 118.722 289.257 116.609 286.454 115.568L282.526 126.135L278.597 136.702Z" fill="#3E7BFA"/>
<mask id="path-88-inside-3_914_9396" fill="white">
<path d="M284.044 121.902C281.241 120.861 278.139 120.975 275.421 122.22C272.702 123.465 270.59 125.739 269.548 128.541C268.506 131.344 268.62 134.446 269.865 137.164C271.11 139.883 273.384 141.996 276.187 143.037L280.115 132.47L284.044 121.902Z"/>
</mask>
<path d="M284.044 121.902C281.241 120.861 278.139 120.975 275.421 122.22C272.702 123.465 270.59 125.739 269.548 128.541C268.506 131.344 268.62 134.446 269.865 137.164C271.11 139.883 273.384 141.996 276.187 143.037L280.115 132.47L284.044 121.902Z" stroke="#C7C9D9" stroke-width="2" mask="url(#path-88-inside-3_914_9396)"/>
</svg>
