<svg width="294" height="284" viewBox="0 0 294 284" fill="none" xmlns="http://www.w3.org/2000/svg">
<path d="M286.344 142C286.344 220.424 222.768 284 144.344 284C65.9193 284 2.34375 220.424 2.34375 142C2.34375 63.5756 65.9193 0 144.344 0C222.768 0 286.344 63.5756 286.344 142Z" fill="#F0F0F4"/>
<path d="M186.269 35L152.129 39H188.129L186.269 35Z" fill="#F2F2F2"/>
<path d="M83.8147 195.562C74.0169 195.562 66.0742 187.548 66.0742 177.662C66.0742 167.777 74.0169 159.763 83.8147 159.763C93.6125 159.763 101.555 167.777 101.555 177.662C101.555 187.548 93.6125 195.562 83.8147 195.562ZM83.8535 177.587C85.1626 177.587 86.2238 176.53 86.2238 175.226C86.2238 173.922 85.1626 172.865 83.8535 172.865C82.5444 172.865 81.4831 173.922 81.4831 175.226C81.4831 176.53 82.5444 177.587 83.8535 177.587ZM83.8535 178.768C81.4807 178.768 79.5572 180.683 79.5572 183.047H88.1497C88.1497 180.683 86.2262 178.768 83.8535 178.768Z" fill="#E2E2E2"/>
<path d="M225.95 63H49.4374C44.0549 63 39.6914 67.3586 39.6914 72.7351V200.265C39.6914 210 39.6914 210 49.4374 210H225.95C235.696 210 235.696 210 235.696 200.265V72.7351C235.696 67.3586 231.332 63 225.95 63Z" fill="white"/>
<path d="M69.1624 198.562C59.3646 198.562 51.4219 190.548 51.4219 180.662C51.4219 170.777 59.3646 162.763 69.1624 162.763C78.9602 162.763 86.9028 170.777 86.9028 180.662C86.9028 190.548 78.9602 198.562 69.1624 198.562ZM69.2011 180.587C70.5102 180.587 71.5715 179.53 71.5715 178.226C71.5715 176.922 70.5102 175.865 69.2011 175.865C67.892 175.865 66.8308 176.922 66.8308 178.226C66.8308 179.53 67.892 180.587 69.2011 180.587ZM69.2011 181.768C66.8284 181.768 64.9049 183.683 64.9049 186.047H73.4974C73.4974 183.683 71.5739 181.768 69.2011 181.768Z" fill="#E2E2E2"/>
<path d="M39.6914 71.3136C39.6914 63 39.6914 63 48.0121 63H227.753C236.074 63 236.074 63 236.074 71.3136V79.6272H39.6914V71.3136Z" fill="#E2E2E2"/>
<rect x="190.344" y="133" width="29" height="10" rx="1" fill="#C7C8FF"/>
<rect x="102.344" y="160" width="80" height="7" rx="1" fill="#E2E2E2"/>
<rect x="55.3438" y="89" width="127" height="54" rx="1" fill="#E2E2E2"/>
<rect x="102.344" y="175" width="100" height="7" rx="1" fill="#E2E2E2"/>
<rect x="102.344" y="190" width="117" height="7" rx="1" fill="#E2E2E2"/>
<circle cx="50.3438" cy="72" r="3" fill="#696CFF"/>
<circle cx="59.3438" cy="72" r="3" fill="#4E7D96"/>
<circle cx="68.3438" cy="72" r="3" fill="#14172E"/>
<path fill-rule="evenodd" clip-rule="evenodd" d="M245.313 30.9061C246.094 30.125 246.094 28.8587 245.313 28.0776L242.908 25.6732C242.127 24.8921 240.861 24.8921 240.08 25.6732L231.505 34.248L222.983 25.7256C222.202 24.9445 220.935 24.9445 220.154 25.7256L217.75 28.13C216.969 28.9111 216.969 30.1774 217.75 30.9584L226.272 39.4808L217.791 47.9625C217.01 48.7436 217.01 50.0099 217.791 50.791L220.195 53.1954C220.976 53.9764 222.242 53.9764 223.023 53.1954L231.505 44.7137L240.039 53.2478C240.82 54.0288 242.087 54.0288 242.868 53.2478L245.272 50.8433C246.053 50.0623 246.053 48.796 245.272 48.0149L236.738 39.4808L245.313 30.9061Z" fill="black"/>
<mask id="path-16-inside-1_879_6392" fill="white">
<path fill-rule="evenodd" clip-rule="evenodd" d="M246.053 24.9855C246.834 24.2045 246.834 22.9381 246.053 22.1571L243.649 19.7527C242.868 18.9716 241.601 18.9716 240.82 19.7527L232.245 28.3274L223.723 19.805C222.942 19.024 221.676 19.024 220.895 19.805L218.49 22.2095C217.709 22.9905 217.709 24.2569 218.49 25.0379L227.012 33.5603L218.531 42.042C217.75 42.823 217.75 44.0894 218.531 44.8704L220.935 47.2749C221.716 48.0559 222.983 48.0559 223.764 47.2749L232.245 38.7932L240.779 47.3272C241.56 48.1083 242.827 48.1083 243.608 47.3272L246.012 44.9228C246.793 44.1418 246.793 42.8754 246.012 42.0944L237.478 33.5603L246.053 24.9855Z"/>
</mask>
<path d="M246.053 22.1571L246.619 21.5914V21.5914L246.053 22.1571ZM246.053 24.9855L246.619 25.5512V25.5512L246.053 24.9855ZM243.649 19.7527L243.083 20.3183V20.3183L243.649 19.7527ZM240.82 19.7527L241.386 20.3183V20.3183L240.82 19.7527ZM232.245 28.3274L231.68 28.8931L232.245 29.4588L232.811 28.8931L232.245 28.3274ZM223.723 19.805L224.289 19.2393L224.289 19.2393L223.723 19.805ZM220.895 19.805L221.46 20.3707L220.895 19.805ZM218.49 22.2095L217.924 21.6438H217.924L218.49 22.2095ZM218.49 25.0379L217.924 25.6036L217.924 25.6036L218.49 25.0379ZM227.012 33.5603L227.578 34.126L228.144 33.5603L227.578 32.9946L227.012 33.5603ZM218.531 42.042L219.096 42.6077H219.096L218.531 42.042ZM218.531 44.8704L219.096 44.3047H219.096L218.531 44.8704ZM220.935 47.2749L220.37 47.8406H220.37L220.935 47.2749ZM223.764 47.2749L224.329 47.8406H224.329L223.764 47.2749ZM232.245 38.7932L232.811 38.2275L232.245 37.6618L231.68 38.2275L232.245 38.7932ZM240.779 47.3272L241.345 46.7616L240.779 47.3272ZM246.012 42.0944L245.447 42.6601L246.012 42.0944ZM237.478 33.5603L236.913 32.9946L236.347 33.5603L236.913 34.126L237.478 33.5603ZM245.487 22.7228C245.956 23.1914 245.956 23.9512 245.487 24.4198L246.619 25.5512C247.712 24.4577 247.712 22.6849 246.619 21.5914L245.487 22.7228ZM243.083 20.3183L245.487 22.7228L246.619 21.5914L244.214 19.187L243.083 20.3183ZM241.386 20.3183C241.854 19.8497 242.614 19.8497 243.083 20.3183L244.214 19.187C243.121 18.0935 241.348 18.0935 240.254 19.187L241.386 20.3183ZM232.811 28.8931L241.386 20.3183L240.254 19.187L231.68 27.7618L232.811 28.8931ZM223.157 20.3707L231.68 28.8931L232.811 27.7618L224.289 19.2393L223.157 20.3707ZM221.46 20.3707C221.929 19.9021 222.689 19.9021 223.157 20.3707L224.289 19.2393C223.195 18.1459 221.422 18.1459 220.329 19.2394L221.46 20.3707ZM219.056 22.7752L221.46 20.3707L220.329 19.2394L217.924 21.6438L219.056 22.7752ZM219.056 24.4722C218.587 24.0036 218.587 23.2438 219.056 22.7752L217.924 21.6438C216.831 22.7373 216.831 24.5101 217.924 25.6036L219.056 24.4722ZM227.578 32.9946L219.056 24.4722L217.924 25.6036L226.447 34.126L227.578 32.9946ZM219.096 42.6077L227.578 34.126L226.447 32.9946L217.965 41.4763L219.096 42.6077ZM219.096 44.3047C218.628 43.8361 218.628 43.0763 219.096 42.6077L217.965 41.4763C216.872 42.5698 216.872 44.3426 217.965 45.4361L219.096 44.3047ZM221.501 46.7092L219.096 44.3047L217.965 45.4361L220.37 47.8406L221.501 46.7092ZM223.198 46.7092C222.729 47.1778 221.97 47.1778 221.501 46.7092L220.37 47.8406C221.463 48.934 223.236 48.934 224.329 47.8406L223.198 46.7092ZM231.68 38.2275L223.198 46.7092L224.329 47.8406L232.811 39.3589L231.68 38.2275ZM241.345 46.7616L232.811 38.2275L231.68 39.3589L240.214 47.8929L241.345 46.7616ZM243.042 46.7616C242.574 47.2302 241.814 47.2302 241.345 46.7616L240.214 47.8929C241.307 48.9864 243.08 48.9864 244.174 47.8929L243.042 46.7616ZM245.447 44.3571L243.042 46.7616L244.174 47.8929L246.578 45.4885L245.447 44.3571ZM245.447 42.6601C245.915 43.1287 245.915 43.8885 245.447 44.3571L246.578 45.4885C247.671 44.395 247.671 42.6222 246.578 41.5287L245.447 42.6601ZM236.913 34.126L245.447 42.6601L246.578 41.5287L238.044 32.9946L236.913 34.126ZM245.487 24.4198L236.913 32.9946L238.044 34.126L246.619 25.5512L245.487 24.4198Z" fill="#696CFF" mask="url(#path-16-inside-1_879_6392)"/>
<circle cx="45.1855" cy="245.505" r="6.90964" transform="rotate(89.254 45.1855 245.505)" stroke="black"/>
<circle cx="41.862" cy="248.917" r="6.73603" transform="rotate(89.254 41.862 248.917)" fill="#696CFF"/>
<circle cx="266.241" cy="191.567" r="1" transform="rotate(33.8854 266.241 191.567)" fill="black"/>
<circle cx="274.542" cy="197.142" r="1" transform="rotate(33.8854 274.542 197.142)" fill="black"/>
<circle cx="282.845" cy="202.717" r="1" transform="rotate(33.8854 282.845 202.717)" fill="black"/>
<circle cx="291.146" cy="208.293" r="1" transform="rotate(33.8854 291.146 208.293)" fill="black"/>
<circle cx="261.31" cy="198.912" r="1" transform="rotate(33.8854 261.31 198.912)" fill="black"/>
<circle cx="269.611" cy="204.487" r="1" transform="rotate(33.8854 269.611 204.487)" fill="black"/>
<circle cx="277.913" cy="210.062" r="1" transform="rotate(33.8854 277.913 210.062)" fill="black"/>
<circle cx="286.214" cy="215.638" r="1" transform="rotate(33.8854 286.214 215.638)" fill="black"/>
<circle cx="256.868" cy="205.523" r="1" transform="rotate(33.8854 256.868 205.523)" fill="black"/>
<circle cx="265.169" cy="211.098" r="1" transform="rotate(33.8854 265.169 211.098)" fill="black"/>
<circle cx="273.472" cy="216.673" r="1" transform="rotate(33.8854 273.472 216.673)" fill="black"/>
<circle cx="281.773" cy="222.249" r="1" transform="rotate(33.8854 281.773 222.249)" fill="black"/>
<circle cx="252.427" cy="212.133" r="1" transform="rotate(33.8854 252.427 212.133)" fill="black"/>
<circle cx="260.728" cy="217.708" r="1" transform="rotate(33.8854 260.728 217.708)" fill="black"/>
<circle cx="269.03" cy="223.284" r="1" transform="rotate(33.8854 269.03 223.284)" fill="black"/>
<circle cx="277.331" cy="228.859" r="1" transform="rotate(33.8854 277.331 228.859)" fill="black"/>
<circle cx="247.495" cy="219.479" r="1" transform="rotate(33.8854 247.495 219.479)" fill="black"/>
<circle cx="255.796" cy="225.054" r="1" transform="rotate(33.8854 255.796 225.054)" fill="black"/>
<circle cx="264.099" cy="230.629" r="1" transform="rotate(33.8854 264.099 230.629)" fill="black"/>
<circle cx="272.4" cy="236.205" r="1" transform="rotate(33.8854 272.4 236.205)" fill="black"/>
<rect x="262.838" y="185" width="33.7297" height="32" rx="0.4" transform="rotate(33.8854 262.838 185)" fill="#696CFF" fill-opacity="0.16"/>
<path d="M24.6853 59.2353C27.8888 60.4262 31.434 60.2957 34.5412 58.8727C37.6485 57.4496 40.0631 54.8505 41.254 51.6471C42.4448 48.4436 42.3144 44.8984 40.8913 41.7912C39.4682 38.6839 36.8691 36.2693 33.6657 35.0784L29.1755 47.1569L24.6853 59.2353Z" fill="#696CFF"/>
<mask id="path-42-inside-2_879_6392" fill="white">
<path d="M30.9123 42.3192C27.7089 41.1284 24.1636 41.2588 21.0564 42.6819C17.9492 44.105 15.5346 46.7041 14.3437 49.9075C13.1528 53.1109 13.2833 56.6562 14.7064 59.7634C16.1294 62.8706 18.7286 65.2853 21.932 66.4761L26.4221 54.3977L30.9123 42.3192Z"/>
</mask>
<path d="M30.9123 42.3192C27.7089 41.1284 24.1636 41.2588 21.0564 42.6819C17.9492 44.105 15.5346 46.7041 14.3437 49.9075C13.1528 53.1109 13.2833 56.6562 14.7064 59.7634C16.1294 62.8706 18.7286 65.2853 21.932 66.4761L26.4221 54.3977L30.9123 42.3192Z" stroke="black" stroke-width="2" mask="url(#path-42-inside-2_879_6392)"/>
<path d="M135.996 171C135.996 198.614 113.61 221 85.9961 221C58.3819 221 35.9961 198.614 35.9961 171C35.9961 143.386 58.3819 121 85.9961 121C113.61 121 135.996 143.386 135.996 171ZM46.7835 171C46.7835 192.657 64.3396 210.213 85.9961 210.213C107.653 210.213 125.209 192.657 125.209 171C125.209 149.343 107.653 131.787 85.9961 131.787C64.3396 131.787 46.7835 149.343 46.7835 171Z" fill="#7B7EEB"/>
<path d="M116.563 195.141C97.7161 176.562 78.8673 157.975 60.017 139.387C51.6267 131.114 43.0404 139.582 51.4323 147.855L107.972 203.611C116.366 211.889 124.949 203.418 116.563 195.141Z" fill="#7B7EEB"/>
</svg>
