<svg width="23" height="22" viewBox="0 0 23 22" fill="none" xmlns="http://www.w3.org/2000/svg">
<path fill-rule="evenodd" clip-rule="evenodd" d="M11.6309 0.443482C11.7392 0.443413 11.8462 0.466796 11.9446 0.512023C12.043 0.55725 12.1304 0.623249 12.2009 0.705482L15.2009 4.20548C15.3303 4.35666 15.3944 4.55305 15.379 4.75146C15.3636 4.94988 15.27 5.13406 15.1189 5.26348C14.9677 5.39291 14.7713 5.45698 14.5729 5.4416C14.3745 5.42622 14.1903 5.33265 14.0609 5.18148L12.3809 3.22148V14.1935C12.3809 14.3924 12.3018 14.5832 12.1612 14.7238C12.0205 14.8645 11.8298 14.9435 11.6309 14.9435C11.432 14.9435 11.2412 14.8645 11.1005 14.7238C10.9599 14.5832 10.8809 14.3924 10.8809 14.1935V3.22048L9.20086 5.18148C9.13678 5.25633 9.05858 5.31783 8.97073 5.36246C8.88287 5.4071 8.78709 5.43399 8.68885 5.4416C8.5906 5.44921 8.49182 5.4374 8.39814 5.40684C8.30446 5.37628 8.21772 5.32757 8.14286 5.26348C8.06801 5.1994 8.00651 5.1212 7.96188 5.03334C7.91725 4.94549 7.89036 4.84971 7.88274 4.75146C7.87513 4.65322 7.88694 4.55444 7.9175 4.46076C7.94806 4.36708 7.99678 4.28034 8.06086 4.20548L11.0609 0.705482C11.1313 0.623249 11.2188 0.55725 11.3172 0.512023C11.4156 0.466796 11.5226 0.443413 11.6309 0.443482ZM6.62686 7.44548C6.82577 7.44442 7.01696 7.52242 7.15836 7.66232C7.29977 7.80223 7.3798 7.99257 7.38086 8.19148C7.38192 8.39039 7.30392 8.58158 7.16402 8.72298C7.02412 8.86439 6.83377 8.94442 6.63486 8.94548C5.54186 8.95148 4.76686 8.97948 4.17786 9.08748C3.61186 9.19248 3.28286 9.35948 3.03986 9.60248C2.76286 9.87948 2.58286 10.2685 2.48386 11.0025C2.38286 11.7575 2.38086 12.7585 2.38086 14.1935V15.1935C2.38086 16.6295 2.38286 17.6305 2.48386 18.3855C2.58286 19.1195 2.76386 19.5075 3.03986 19.7855C3.31686 20.0615 3.70486 20.2415 4.43986 20.3405C5.19386 20.4425 6.19586 20.4435 7.63086 20.4435H15.6309C17.0659 20.4435 18.0669 20.4425 18.8229 20.3405C19.5569 20.2415 19.9449 20.0615 20.2219 19.7845C20.4989 19.5075 20.6789 19.1195 20.7779 18.3855C20.8789 17.6305 20.8809 16.6295 20.8809 15.1935V14.1935C20.8809 12.7585 20.8789 11.7575 20.7779 11.0015C20.6789 10.2685 20.4979 9.87948 20.2219 9.60248C19.9779 9.35948 19.6499 9.19248 19.0839 9.08748C18.4949 8.97948 17.7199 8.95148 16.6269 8.94548C16.5284 8.94496 16.431 8.92504 16.3402 8.88686C16.2494 8.84868 16.167 8.793 16.0977 8.72298C16.0284 8.65297 15.9736 8.56999 15.9364 8.4788C15.8992 8.3876 15.8803 8.28997 15.8809 8.19148C15.8814 8.09299 15.9013 7.99557 15.9395 7.90477C15.9777 7.81398 16.0333 7.7316 16.1034 7.66232C16.1734 7.59305 16.2564 7.53825 16.3475 7.50104C16.4387 7.46384 16.5364 7.44496 16.6349 7.44548C17.7169 7.45148 18.6179 7.47748 19.3549 7.61248C20.1129 7.75248 20.7579 8.01748 21.2829 8.54248C21.8849 9.14348 22.1429 9.90248 22.2649 10.8025C22.3809 11.6685 22.3809 12.7715 22.3809 14.1385V15.2485C22.3809 16.6165 22.3809 17.7185 22.2649 18.5855C22.1429 19.4855 21.8849 20.2435 21.2829 20.8455C20.6809 21.4475 19.9229 21.7055 19.0229 21.8275C18.1559 21.9435 17.0529 21.9435 15.6859 21.9435H7.57586C6.20886 21.9435 5.10586 21.9435 4.23886 21.8275C3.33886 21.7065 2.58086 21.4475 1.97886 20.8455C1.37686 20.2435 1.11886 19.4855 0.997859 18.5855C0.880859 17.7185 0.880859 16.6155 0.880859 15.2485V14.1385C0.880859 12.7715 0.880859 11.6685 0.997859 10.8015C1.11786 9.90148 1.37786 9.14348 1.97886 8.54148C2.50386 8.01748 3.14886 7.75148 3.90686 7.61248C4.64386 7.47748 5.54486 7.45148 6.62686 7.44548Z" fill="#FF6E2B"/>
</svg>
