<svg width="322" height="322" viewBox="0 0 322 322" fill="none" xmlns="http://www.w3.org/2000/svg">
<path d="M282.398 160.236C282.398 227.193 228.119 281.473 161.162 281.473C94.2051 281.473 39.9258 227.193 39.9258 160.236C39.9258 93.2793 94.2051 39 161.162 39C228.119 39 282.398 93.2793 282.398 160.236Z" stroke="url(#paint0_linear_906_2133)" stroke-opacity="0.4" stroke-width="6"/>
<path d="M240.958 92H86.5268C81.8176 92 78 95.8133 78 100.517V212.094C78 220.611 78 220.611 86.5268 220.611H240.958C249.485 220.611 249.485 220.611 249.485 212.094V100.517C249.485 95.8133 245.667 92 240.958 92Z" fill="#D0D5DD" fill-opacity="0.64"/>
<path d="M103.633 209.723C95.0604 209.723 88.1113 202.711 88.1113 194.062C88.1113 185.413 95.0604 178.402 103.633 178.402C112.205 178.402 119.154 185.413 119.154 194.062C119.154 202.711 112.205 209.723 103.633 209.723ZM103.666 193.996C104.812 193.996 105.74 193.072 105.74 191.931C105.74 190.79 104.812 189.865 103.666 189.865C102.521 189.865 101.593 190.79 101.593 191.931C101.593 193.072 102.521 193.996 103.666 193.996ZM103.666 195.029C101.591 195.029 99.9076 196.705 99.9076 198.773H107.425C107.425 196.705 105.742 195.029 103.666 195.029Z" fill="#232D42"/>
<path d="M77.8496 98.3925C77.8496 91.1189 77.8496 91.1189 85.1294 91.1189H242.386C249.666 91.1189 249.666 91.1189 249.666 98.3925V105.666H77.8496V98.3925Z" fill="#28293D"/>
<rect x="209.656" y="152.362" width="25.3722" height="8.74903" rx="1" fill="#3E7BFA"/>
<rect x="132.666" y="175.985" width="69.9923" height="6.12432" rx="1" fill="#28293D"/>
<rect x="91.5449" y="113.866" width="111.113" height="47.2448" rx="1" fill="#D0D5DD"/>
<rect x="132.666" y="189.108" width="87.4903" height="6.12432" rx="1" fill="#D0D5DD"/>
<rect x="132.666" y="202.232" width="102.364" height="6.12432" rx="1" fill="#D0D5DD"/>
<circle cx="87.1696" cy="99.6247" r="2.62471" fill="#05A660"/>
<circle cx="101.668" cy="99.6247" r="2.62471" fill="#FFCC00"/>
<circle cx="94.4196" cy="99.6247" r="2.62471" fill="#3E7BFA"/>
<circle cx="86.0442" cy="62.0449" r="5.42309" stroke="#C7C9D9"/>
<circle cx="88.7362" cy="64.7372" r="5.38462" fill="#3E7BFA"/>
<circle cx="44.9116" cy="141.231" r="1" transform="rotate(45.9703 44.9116 141.231)" fill="#C7C9D9"/>
<circle cx="51.8628" cy="148.421" r="1" transform="rotate(45.9703 51.8628 148.421)" fill="#3E7BFA"/>
<circle cx="58.812" cy="155.611" r="1" transform="rotate(45.9703 58.812 155.611)" fill="#C7C9D9"/>
<circle cx="65.7632" cy="162.8" r="1" transform="rotate(45.9703 65.7632 162.8)" fill="#C7C9D9"/>
<circle cx="72.7124" cy="169.99" r="1" transform="rotate(45.9703 72.7124 169.99)" fill="#C7C9D9"/>
<circle cx="39.3764" cy="146.582" r="1" transform="rotate(45.9703 39.3764 146.582)" fill="#C7C9D9"/>
<circle cx="46.3276" cy="153.772" r="1" transform="rotate(45.9703 46.3276 153.772)" fill="#3E7BFA"/>
<circle cx="53.2768" cy="160.962" r="1" transform="rotate(45.9703 53.2768 160.962)" fill="#C7C9D9"/>
<circle cx="60.228" cy="168.151" r="1" transform="rotate(45.9703 60.228 168.151)" fill="#3E7BFA"/>
<circle cx="67.1772" cy="175.341" r="1" transform="rotate(45.9703 67.1772 175.341)" fill="#3E7BFA"/>
<circle cx="33.8413" cy="151.933" r="1" transform="rotate(45.9703 33.8413 151.933)" fill="#C7C9D9"/>
<circle cx="40.7925" cy="159.123" r="1" transform="rotate(45.9703 40.7925 159.123)" fill="#C7C9D9"/>
<circle cx="47.7417" cy="166.313" r="1" transform="rotate(45.9703 47.7417 166.313)" fill="#3E7BFA"/>
<circle cx="54.6928" cy="173.503" r="1" transform="rotate(45.9703 54.6928 173.503)" fill="#3E7BFA"/>
<circle cx="61.6421" cy="180.693" r="1" transform="rotate(45.9703 61.6421 180.693)" fill="#3E7BFA"/>
<circle cx="28.3042" cy="157.284" r="1" transform="rotate(45.9703 28.3042 157.284)" fill="#C7C9D9"/>
<circle cx="35.2553" cy="164.474" r="1" transform="rotate(45.9703 35.2553 164.474)" fill="#C7C9D9"/>
<circle cx="42.2046" cy="171.664" r="1" transform="rotate(45.9703 42.2046 171.664)" fill="#3E7BFA"/>
<circle cx="49.1557" cy="178.854" r="1" transform="rotate(45.9703 49.1557 178.854)" fill="#C7C9D9"/>
<circle cx="56.105" cy="186.044" r="1" transform="rotate(45.9703 56.105 186.044)" fill="#C7C9D9"/>
<circle cx="22.769" cy="162.635" r="1" transform="rotate(45.9703 22.769 162.635)" fill="#C7C9D9"/>
<circle cx="29.7202" cy="169.825" r="1" transform="rotate(45.9703 29.7202 169.825)" fill="#3E7BFA"/>
<circle cx="36.6694" cy="177.015" r="1" transform="rotate(45.9703 36.6694 177.015)" fill="#C7C9D9"/>
<circle cx="43.6206" cy="184.205" r="1" transform="rotate(45.9703 43.6206 184.205)" fill="#C7C9D9"/>
<circle cx="50.5698" cy="191.395" r="1" transform="rotate(45.9703 50.5698 191.395)" fill="#C7C9D9"/>
<circle cx="17.2339" cy="167.987" r="1" transform="rotate(45.9703 17.2339 167.987)" fill="#C7C9D9"/>
<circle cx="24.185" cy="175.176" r="1" transform="rotate(45.9703 24.185 175.176)" fill="#C7C9D9"/>
<circle cx="31.1343" cy="182.366" r="1" transform="rotate(45.9703 31.1343 182.366)" fill="#C7C9D9"/>
<circle cx="38.0854" cy="189.556" r="1" transform="rotate(45.9703 38.0854 189.556)" fill="#3E7BFA"/>
<circle cx="45.0346" cy="196.746" r="1" transform="rotate(45.9703 45.0346 196.746)" fill="#C7C9D9"/>
<circle cx="243.029" cy="237.353" r="1" fill="#C7C9D9"/>
<circle cx="253.029" cy="237.353" r="1" fill="#C7C9D9"/>
<circle cx="263.029" cy="237.353" r="1" fill="#C7C9D9"/>
<circle cx="273.029" cy="237.353" r="1" fill="#C7C9D9"/>
<circle cx="283.029" cy="237.353" r="1" fill="#C7C9D9"/>
<circle cx="243.029" cy="245.052" r="1" fill="#C7C9D9"/>
<circle cx="253.029" cy="245.052" r="1" fill="#C7C9D9"/>
<circle cx="263.029" cy="245.052" r="1" fill="#C7C9D9"/>
<circle cx="273.029" cy="245.052" r="1" fill="#C7C9D9"/>
<circle cx="283.029" cy="245.052" r="1" fill="#C7C9D9"/>
<circle cx="243.029" cy="252.751" r="1" fill="#C7C9D9"/>
<circle cx="253.029" cy="252.751" r="1" fill="#C7C9D9"/>
<circle cx="263.029" cy="252.751" r="1" fill="#C7C9D9"/>
<circle cx="273.029" cy="252.751" r="1" fill="#C7C9D9"/>
<circle cx="283.029" cy="252.751" r="1" fill="#C7C9D9"/>
<circle cx="243.029" cy="260.45" r="1" fill="#C7C9D9"/>
<circle cx="253.029" cy="260.45" r="1" fill="#C7C9D9"/>
<circle cx="263.029" cy="260.45" r="1" fill="#C7C9D9"/>
<circle cx="273.029" cy="260.45" r="1" fill="#C7C9D9"/>
<circle cx="283.029" cy="260.45" r="1" fill="#C7C9D9"/>
<circle cx="243.029" cy="268.149" r="1" fill="#C7C9D9"/>
<circle cx="253.029" cy="268.149" r="1" fill="#C7C9D9"/>
<circle cx="263.029" cy="268.149" r="1" fill="#C7C9D9"/>
<circle cx="273.029" cy="268.149" r="1" fill="#C7C9D9"/>
<circle cx="283.029" cy="268.149" r="1" fill="#C7C9D9"/>
<circle cx="243.029" cy="275.849" r="1" fill="#C7C9D9"/>
<circle cx="253.029" cy="275.849" r="1" fill="#C7C9D9"/>
<circle cx="263.029" cy="275.849" r="1" fill="#C7C9D9"/>
<circle cx="273.029" cy="275.849" r="1" fill="#C7C9D9"/>
<circle cx="283.029" cy="275.849" r="1" fill="#C7C9D9"/>
<rect x="238.2" y="233.2" width="38.6" height="38.6" stroke="#3E7BFA" stroke-width="0.4"/>
<path d="M150 205C150 232.614 127.614 255 100 255C72.3858 255 50 232.614 50 205C50 177.386 72.3858 155 100 155C127.614 155 150 177.386 150 205ZM60.7874 205C60.7874 226.657 78.3435 244.213 100 244.213C121.657 244.213 139.213 226.657 139.213 205C139.213 183.343 121.657 165.787 100 165.787C78.3435 165.787 60.7874 183.343 60.7874 205Z" fill="#3136FF"/>
<path d="M130.567 229.141C111.72 210.562 92.8712 191.975 74.0209 173.387C65.6306 165.114 57.0443 173.582 65.4362 181.855L121.976 237.611C130.37 245.889 138.953 237.418 130.567 229.141Z" fill="#3136FF"/>
<path fill-rule="evenodd" clip-rule="evenodd" d="M248.149 56.7393C248.93 55.9583 248.93 54.6919 248.149 53.9109L245.744 51.5064C244.963 50.7254 243.697 50.7254 242.916 51.5064L234.341 60.0812L225.819 51.5588C225.038 50.7778 223.771 50.7778 222.99 51.5588L220.586 53.9633C219.805 54.7443 219.805 56.0106 220.586 56.7917L229.108 65.3141L220.626 73.7958C219.845 74.5768 219.845 75.8432 220.626 76.6242L223.031 79.0287C223.812 79.8097 225.078 79.8097 225.859 79.0287L234.341 70.547L242.875 79.081C243.656 79.8621 244.923 79.8621 245.704 79.081L248.108 76.6766C248.889 75.8955 248.889 74.6292 248.108 73.8482L239.574 65.3141L248.149 56.7393Z" fill="black"/>
<mask id="path-79-inside-1_906_2133" fill="white">
<path fill-rule="evenodd" clip-rule="evenodd" d="M248.889 50.8187C249.67 50.0376 249.67 48.7713 248.889 47.9902L246.484 45.5858C245.703 44.8047 244.437 44.8047 243.656 45.5858L235.081 54.1606L226.559 45.6382C225.778 44.8571 224.512 44.8571 223.73 45.6382L221.326 48.0426C220.545 48.8237 220.545 50.09 221.326 50.871L229.848 59.3934L221.367 67.8751C220.586 68.6562 220.586 69.9225 221.367 70.7036L223.771 73.108C224.552 73.889 225.819 73.889 226.6 73.108L235.081 64.6263L243.615 73.1604C244.396 73.9414 245.663 73.9414 246.444 73.1604L248.848 70.7559C249.629 69.9749 249.629 68.7086 248.848 67.9275L240.314 59.3934L248.889 50.8187Z"/>
</mask>
<path d="M248.889 47.9902L249.455 47.4245V47.4245L248.889 47.9902ZM248.889 50.8187L249.455 51.3843V51.3843L248.889 50.8187ZM246.484 45.5858L245.919 46.1515V46.1515L246.484 45.5858ZM243.656 45.5858L244.222 46.1515V46.1515L243.656 45.5858ZM235.081 54.1606L234.516 54.7263L235.081 55.2919L235.647 54.7263L235.081 54.1606ZM226.559 45.6382L227.125 45.0725L227.125 45.0725L226.559 45.6382ZM223.73 45.6382L224.296 46.2039L223.73 45.6382ZM221.326 48.0426L220.76 47.4769H220.76L221.326 48.0426ZM221.326 50.871L220.76 51.4367L220.76 51.4367L221.326 50.871ZM229.848 59.3934L230.414 59.9591L230.98 59.3934L230.414 58.8277L229.848 59.3934ZM221.367 67.8751L221.932 68.4408H221.932L221.367 67.8751ZM221.367 70.7036L221.932 70.1379H221.932L221.367 70.7036ZM223.771 73.108L223.205 73.6737H223.205L223.771 73.108ZM226.6 73.108L227.165 73.6737H227.165L226.6 73.108ZM235.081 64.6263L235.647 64.0606L235.081 63.4949L234.516 64.0606L235.081 64.6263ZM243.615 73.1604L244.181 72.5947L243.615 73.1604ZM248.848 67.9275L248.283 68.4932L248.848 67.9275ZM240.314 59.3934L239.748 58.8277L239.183 59.3934L239.748 59.9591L240.314 59.3934ZM248.323 48.5559C248.792 49.0245 248.792 49.7843 248.323 50.253L249.455 51.3843C250.548 50.2909 250.548 48.518 249.455 47.4245L248.323 48.5559ZM245.919 46.1515L248.323 48.5559L249.455 47.4245L247.05 45.0201L245.919 46.1515ZM244.222 46.1515C244.69 45.6828 245.45 45.6828 245.919 46.1515L247.05 45.0201C245.957 43.9266 244.184 43.9266 243.09 45.0201L244.222 46.1515ZM235.647 54.7263L244.222 46.1515L243.09 45.0201L234.516 53.5949L235.647 54.7263ZM225.993 46.2039L234.516 54.7263L235.647 53.5949L227.125 45.0725L225.993 46.2039ZM224.296 46.2039C224.765 45.7352 225.525 45.7352 225.993 46.2039L227.125 45.0725C226.031 43.979 224.258 43.979 223.165 45.0725L224.296 46.2039ZM221.892 48.6083L224.296 46.2039L223.165 45.0725L220.76 47.4769L221.892 48.6083ZM221.892 50.3054C221.423 49.8367 221.423 49.0769 221.892 48.6083L220.76 47.4769C219.667 48.5704 219.667 50.3433 220.76 51.4367L221.892 50.3054ZM230.414 58.8277L221.892 50.3054L220.76 51.4367L229.283 59.9591L230.414 58.8277ZM221.932 68.4408L230.414 59.9591L229.283 58.8277L220.801 67.3094L221.932 68.4408ZM221.932 70.1379C221.464 69.6692 221.464 68.9094 221.932 68.4408L220.801 67.3094C219.708 68.4029 219.708 70.1758 220.801 71.2692L221.932 70.1379ZM224.337 72.5423L221.932 70.1379L220.801 71.2692L223.205 73.6737L224.337 72.5423ZM226.034 72.5423C225.565 73.0109 224.805 73.0109 224.337 72.5423L223.205 73.6737C224.299 74.7672 226.072 74.7671 227.165 73.6737L226.034 72.5423ZM234.516 64.0606L226.034 72.5423L227.165 73.6737L235.647 65.192L234.516 64.0606ZM244.181 72.5947L235.647 64.0606L234.516 65.192L243.05 73.7261L244.181 72.5947ZM245.878 72.5947C245.409 73.0633 244.65 73.0633 244.181 72.5947L243.05 73.7261C244.143 74.8195 245.916 74.8195 247.009 73.7261L245.878 72.5947ZM248.283 70.1903L245.878 72.5947L247.009 73.7261L249.414 71.3216L248.283 70.1903ZM248.283 68.4932C248.751 68.9618 248.751 69.7216 248.283 70.1903L249.414 71.3216C250.507 70.2282 250.507 68.4553 249.414 67.3618L248.283 68.4932ZM239.748 59.9591L248.283 68.4932L249.414 67.3618L240.88 58.8277L239.748 59.9591ZM248.323 50.253L239.748 58.8277L240.88 59.9591L249.455 51.3843L248.323 50.253Z" fill="#696CFF" mask="url(#path-79-inside-1_906_2133)"/>
<path d="M278.597 136.702C281.4 137.744 284.502 137.63 287.22 136.385C289.939 135.14 292.051 132.866 293.093 130.063C294.135 127.261 294.021 124.159 292.776 121.44C291.531 118.722 289.257 116.609 286.454 115.567L282.526 126.135L278.597 136.702Z" fill="#3E7BFA"/>
<mask id="path-82-inside-2_906_2133" fill="white">
<path d="M284.044 121.902C281.241 120.861 278.139 120.975 275.421 122.22C272.702 123.465 270.59 125.739 269.548 128.541C268.506 131.344 268.62 134.446 269.865 137.164C271.11 139.883 273.384 141.995 276.187 143.037L280.115 132.47L284.044 121.902Z"/>
</mask>
<path d="M284.044 121.902C281.241 120.861 278.139 120.975 275.421 122.22C272.702 123.465 270.59 125.739 269.548 128.541C268.506 131.344 268.62 134.446 269.865 137.164C271.11 139.883 273.384 141.995 276.187 143.037L280.115 132.47L284.044 121.902Z" stroke="#C7C9D9" stroke-width="2" mask="url(#path-82-inside-2_906_2133)"/>
<defs>
<linearGradient id="paint0_linear_906_2133" x1="236.5" y1="264" x2="72.5" y2="28.5" gradientUnits="userSpaceOnUse">
<stop stop-color="white"/>
<stop offset="1" stop-color="white" stop-opacity="0"/>
</linearGradient>
</defs>
</svg>
