<svg width="269" height="249" viewBox="0 0 269 249" fill="none" xmlns="http://www.w3.org/2000/svg">
<path d="M256.398 124.236C256.398 191.193 202.119 245.473 135.162 245.473C68.2051 245.473 13.9258 191.193 13.9258 124.236C13.9258 57.2793 68.2051 3 135.162 3C202.119 3 256.398 57.2793 256.398 124.236Z" stroke="url(#paint0_linear_906_1872)" stroke-opacity="0.4" stroke-width="6"/>
<path d="M46 69.1865L161.077 23L224.025 179.839L108.948 226.026L46 69.1865Z" fill="#91949F"/>
<g filter="url(#filter0_d_906_1872)">
<rect x="73.0117" y="40.0129" width="124" height="169" fill="#91949F"/>
<rect x="73.5117" y="40.5129" width="123" height="168" stroke="#58596D"/>
</g>
<rect x="133.012" y="68.0129" width="48" height="10" rx="2" fill="#28293D"/>
<rect x="89.0117" y="94.0129" width="92" height="10" rx="2" fill="#D0D5DD"/>
<path d="M89.0117 122.013C89.0117 120.908 89.9071 120.013 91.0117 120.013H179.012C180.116 120.013 181.012 120.908 181.012 122.013V128.013C181.012 129.118 180.116 130.013 179.012 130.013H91.0117C89.9071 130.013 89.0117 129.118 89.0117 128.013V122.013Z" fill="#D0D5DD"/>
<rect x="89.0117" y="146.013" width="92" height="10" rx="2" fill="#D0D5DD"/>
<rect x="89.0117" y="172.013" width="92" height="10" rx="2" fill="#D0D5DD"/>
<circle cx="70.0442" cy="26.0449" r="5.42309" stroke="#C7C9D9"/>
<circle cx="72.7362" cy="28.7372" r="5.38462" fill="#3E7BFA"/>
<circle cx="28.9116" cy="105.231" r="1" transform="rotate(45.9703 28.9116 105.231)" fill="#C7C9D9"/>
<circle cx="35.8628" cy="112.421" r="1" transform="rotate(45.9703 35.8628 112.421)" fill="#3E7BFA"/>
<circle cx="42.812" cy="119.611" r="1" transform="rotate(45.9703 42.812 119.611)" fill="#C7C9D9"/>
<circle cx="49.7632" cy="126.8" r="1" transform="rotate(45.9703 49.7632 126.8)" fill="#C7C9D9"/>
<circle cx="56.7124" cy="133.99" r="1" transform="rotate(45.9703 56.7124 133.99)" fill="#C7C9D9"/>
<circle cx="23.3764" cy="110.582" r="1" transform="rotate(45.9703 23.3764 110.582)" fill="#C7C9D9"/>
<circle cx="30.3276" cy="117.772" r="1" transform="rotate(45.9703 30.3276 117.772)" fill="#3E7BFA"/>
<circle cx="37.2768" cy="124.962" r="1" transform="rotate(45.9703 37.2768 124.962)" fill="#C7C9D9"/>
<circle cx="44.228" cy="132.151" r="1" transform="rotate(45.9703 44.228 132.151)" fill="#3E7BFA"/>
<circle cx="51.1772" cy="139.341" r="1" transform="rotate(45.9703 51.1772 139.341)" fill="#3E7BFA"/>
<circle cx="17.8413" cy="115.933" r="1" transform="rotate(45.9703 17.8413 115.933)" fill="#C7C9D9"/>
<circle cx="24.7925" cy="123.123" r="1" transform="rotate(45.9703 24.7925 123.123)" fill="#C7C9D9"/>
<circle cx="31.7417" cy="130.313" r="1" transform="rotate(45.9703 31.7417 130.313)" fill="#3E7BFA"/>
<circle cx="38.6928" cy="137.503" r="1" transform="rotate(45.9703 38.6928 137.503)" fill="#3E7BFA"/>
<circle cx="45.6421" cy="144.693" r="1" transform="rotate(45.9703 45.6421 144.693)" fill="#3E7BFA"/>
<circle cx="12.3042" cy="121.284" r="1" transform="rotate(45.9703 12.3042 121.284)" fill="#C7C9D9"/>
<circle cx="19.2553" cy="128.474" r="1" transform="rotate(45.9703 19.2553 128.474)" fill="#C7C9D9"/>
<circle cx="26.2046" cy="135.664" r="1" transform="rotate(45.9703 26.2046 135.664)" fill="#3E7BFA"/>
<circle cx="33.1557" cy="142.854" r="1" transform="rotate(45.9703 33.1557 142.854)" fill="#C7C9D9"/>
<circle cx="40.105" cy="150.044" r="1" transform="rotate(45.9703 40.105 150.044)" fill="#C7C9D9"/>
<circle cx="6.76902" cy="126.635" r="1" transform="rotate(45.9703 6.76902 126.635)" fill="#C7C9D9"/>
<circle cx="13.7202" cy="133.825" r="1" transform="rotate(45.9703 13.7202 133.825)" fill="#3E7BFA"/>
<circle cx="20.6694" cy="141.015" r="1" transform="rotate(45.9703 20.6694 141.015)" fill="#C7C9D9"/>
<circle cx="27.6206" cy="148.205" r="1" transform="rotate(45.9703 27.6206 148.205)" fill="#C7C9D9"/>
<circle cx="34.5698" cy="155.395" r="1" transform="rotate(45.9703 34.5698 155.395)" fill="#C7C9D9"/>
<circle cx="1.23386" cy="131.987" r="1" transform="rotate(45.9703 1.23386 131.987)" fill="#C7C9D9"/>
<circle cx="8.18503" cy="139.176" r="1" transform="rotate(45.9703 8.18503 139.176)" fill="#C7C9D9"/>
<circle cx="15.1343" cy="146.366" r="1" transform="rotate(45.9703 15.1343 146.366)" fill="#C7C9D9"/>
<circle cx="22.0854" cy="153.556" r="1" transform="rotate(45.9703 22.0854 153.556)" fill="#3E7BFA"/>
<circle cx="29.0346" cy="160.746" r="1" transform="rotate(45.9703 29.0346 160.746)" fill="#C7C9D9"/>
<circle cx="227.029" cy="201.353" r="1" fill="#C7C9D9"/>
<circle cx="237.029" cy="201.353" r="1" fill="#C7C9D9"/>
<circle cx="247.029" cy="201.353" r="1" fill="#C7C9D9"/>
<circle cx="257.029" cy="201.353" r="1" fill="#C7C9D9"/>
<circle cx="267.029" cy="201.353" r="1" fill="#C7C9D9"/>
<circle cx="227.029" cy="209.052" r="1" fill="#C7C9D9"/>
<circle cx="237.029" cy="209.052" r="1" fill="#C7C9D9"/>
<circle cx="247.029" cy="209.052" r="1" fill="#C7C9D9"/>
<circle cx="257.029" cy="209.052" r="1" fill="#C7C9D9"/>
<circle cx="267.029" cy="209.052" r="1" fill="#C7C9D9"/>
<circle cx="227.029" cy="216.751" r="1" fill="#C7C9D9"/>
<circle cx="237.029" cy="216.751" r="1" fill="#C7C9D9"/>
<circle cx="247.029" cy="216.751" r="1" fill="#C7C9D9"/>
<circle cx="257.029" cy="216.751" r="1" fill="#C7C9D9"/>
<circle cx="267.029" cy="216.751" r="1" fill="#C7C9D9"/>
<circle cx="227.029" cy="224.45" r="1" fill="#C7C9D9"/>
<circle cx="237.029" cy="224.45" r="1" fill="#C7C9D9"/>
<circle cx="247.029" cy="224.45" r="1" fill="#C7C9D9"/>
<circle cx="257.029" cy="224.45" r="1" fill="#C7C9D9"/>
<circle cx="267.029" cy="224.45" r="1" fill="#C7C9D9"/>
<circle cx="227.029" cy="232.149" r="1" fill="#C7C9D9"/>
<circle cx="237.029" cy="232.149" r="1" fill="#C7C9D9"/>
<circle cx="247.029" cy="232.149" r="1" fill="#C7C9D9"/>
<circle cx="257.029" cy="232.149" r="1" fill="#C7C9D9"/>
<circle cx="267.029" cy="232.149" r="1" fill="#C7C9D9"/>
<circle cx="227.029" cy="239.849" r="1" fill="#C7C9D9"/>
<circle cx="237.029" cy="239.849" r="1" fill="#C7C9D9"/>
<circle cx="247.029" cy="239.849" r="1" fill="#C7C9D9"/>
<circle cx="257.029" cy="239.849" r="1" fill="#C7C9D9"/>
<circle cx="267.029" cy="239.849" r="1" fill="#C7C9D9"/>
<rect x="222.2" y="197.2" width="38.6" height="38.6" stroke="#3E7BFA" stroke-width="0.4"/>
<rect x="77.0859" y="194.175" width="16.6559" height="9.30101" transform="rotate(-45 77.0859 194.175)" fill="#555770"/>
<path d="M79.2656 186.536L91.2094 198.48L58.5646 231.125C57.0025 232.687 54.4698 232.687 52.9077 231.125L46.6208 224.838C45.0587 223.276 45.0587 220.743 46.6208 219.181L79.2656 186.536Z" fill="#8F90A6"/>
<circle cx="120.206" cy="155.391" r="38.3914" fill="white" fill-opacity="0.32" stroke="#555770" stroke-width="8"/>
<path d="M50.3125 215.404L62.3801 227.471L57.8959 231.956C56.3338 233.518 53.8012 233.518 52.2391 231.956L45.8283 225.545C44.2662 223.983 44.2662 221.45 45.8283 219.888L50.3125 215.404Z" fill="#555770"/>
<path fill-rule="evenodd" clip-rule="evenodd" d="M138.828 143.657C139.609 142.876 139.609 141.609 138.828 140.828L134.586 136.586C133.805 135.805 132.538 135.805 131.757 136.586L119.672 148.672L107.657 136.657C106.876 135.876 105.609 135.876 104.828 136.657L100.586 140.899C99.8047 141.681 99.8047 142.947 100.586 143.728L112.601 155.743L100.645 167.698C99.8636 168.48 99.8636 169.746 100.645 170.527L104.887 174.77C105.668 175.551 106.935 175.551 107.716 174.77L119.672 162.814L131.698 174.841C132.48 175.622 133.746 175.622 134.527 174.841L138.77 170.598C139.551 169.817 139.551 168.551 138.77 167.77L126.743 155.743L138.828 143.657Z" fill="#3E7BFA"/>
<path fill-rule="evenodd" clip-rule="evenodd" d="M257.799 33.5451C258.58 32.7641 258.58 31.4978 257.799 30.7167L254.078 26.9957C253.297 26.2146 252.03 26.2147 251.249 26.9957L240.159 38.0856L229.135 27.0615C228.354 26.2805 227.088 26.2805 226.307 27.0615L222.586 30.7825C221.805 31.5636 221.805 32.8299 222.586 33.611L233.61 44.6351L222.64 55.6046C221.859 56.3857 221.859 57.652 222.64 58.433L226.361 62.1541C227.142 62.9351 228.409 62.9351 229.19 62.154L240.159 51.1845L251.195 62.2199C251.976 63.0009 253.242 63.0009 254.023 62.2199L257.744 58.4989C258.525 57.7178 258.525 56.4515 257.744 55.6704L246.709 44.6351L257.799 33.5451Z" fill="black"/>
<mask id="path-79-inside-1_906_1872" fill="white">
<path fill-rule="evenodd" clip-rule="evenodd" d="M258.724 26.1352C259.506 25.3542 259.506 24.0879 258.724 23.3068L255.003 19.5858C254.222 18.8047 252.956 18.8047 252.175 19.5858L241.085 30.6757L230.061 19.6516C229.28 18.8706 228.014 18.8706 227.233 19.6516L223.512 23.3726C222.731 24.1537 222.731 25.42 223.512 26.2011L234.536 37.2251L223.566 48.1947C222.785 48.9757 222.785 50.2421 223.566 51.0231L227.287 54.7441C228.068 55.5252 229.334 55.5252 230.116 54.7441L241.085 43.7746L252.12 54.81C252.902 55.591 254.168 55.591 254.949 54.81L258.67 51.0889C259.451 50.3079 259.451 49.0416 258.67 48.2605L247.635 37.2251L258.724 26.1352Z"/>
</mask>
<path d="M258.724 23.3068L259.432 22.5997V22.5997L258.724 23.3068ZM258.724 26.1352L258.017 25.4281L258.017 25.4281L258.724 26.1352ZM255.003 19.5858L255.711 18.8787V18.8787L255.003 19.5858ZM252.175 19.5858L251.468 18.8787L251.468 18.8787L252.175 19.5858ZM241.085 30.6757L240.378 31.3828L241.085 32.0899L241.792 31.3828L241.085 30.6757ZM230.061 19.6516L230.768 18.9445L230.768 18.9445L230.061 19.6516ZM227.233 19.6516L226.525 18.9445V18.9445L227.233 19.6516ZM223.512 23.3726L222.804 22.6655H222.804L223.512 23.3726ZM223.512 26.2011L222.804 26.9082L222.804 26.9082L223.512 26.2011ZM234.536 37.2251L235.243 37.9323L235.95 37.2251L235.243 36.518L234.536 37.2251ZM223.566 48.1947L224.273 48.9018H224.273L223.566 48.1947ZM223.566 51.0231L222.859 51.7302H222.859L223.566 51.0231ZM227.287 54.7441L226.58 55.4512H226.58L227.287 54.7441ZM230.116 54.7441L229.408 54.037L229.408 54.037L230.116 54.7441ZM241.085 43.7746L241.792 43.0675L241.085 42.3604L240.378 43.0675L241.085 43.7746ZM254.949 54.81L255.656 55.5171L254.949 54.81ZM258.67 48.2605L257.963 48.9676L257.963 48.9676L258.67 48.2605ZM247.635 37.2251L246.927 36.518L246.22 37.2251L246.927 37.9323L247.635 37.2251ZM258.017 24.0139C258.408 24.4044 258.408 25.0376 258.017 25.4281L259.432 26.8423C260.603 25.6708 260.603 23.7713 259.432 22.5997L258.017 24.0139ZM254.296 20.2929L258.017 24.0139L259.432 22.5997L255.711 18.8787L254.296 20.2929ZM252.882 20.2929C253.273 19.9024 253.906 19.9024 254.296 20.2929L255.711 18.8787C254.539 17.7071 252.639 17.7071 251.468 18.8787L252.882 20.2929ZM241.792 31.3828L252.882 20.2929L251.468 18.8787L240.378 29.9686L241.792 31.3828ZM229.354 20.3587L240.378 31.3828L241.792 29.9686L230.768 18.9445L229.354 20.3587ZM227.94 20.3587C228.33 19.9682 228.963 19.9682 229.354 20.3587L230.768 18.9445C229.597 17.7729 227.697 17.7729 226.525 18.9445L227.94 20.3587ZM224.219 24.0797L227.94 20.3587L226.525 18.9445L222.804 22.6655L224.219 24.0797ZM224.219 25.494C223.828 25.1034 223.828 24.4703 224.219 24.0797L222.804 22.6655C221.633 23.8371 221.633 25.7366 222.804 26.9082L224.219 25.494ZM235.243 36.518L224.219 25.494L222.804 26.9082L233.829 37.9323L235.243 36.518ZM224.273 48.9018L235.243 37.9323L233.829 36.518L222.859 47.4876L224.273 48.9018ZM224.273 50.316C223.883 49.9255 223.883 49.2923 224.273 48.9018L222.859 47.4876C221.687 48.6592 221.687 50.5587 222.859 51.7302L224.273 50.316ZM227.994 54.037L224.273 50.316L222.859 51.7302L226.58 55.4512L227.994 54.037ZM229.408 54.037C229.018 54.4276 228.385 54.4276 227.994 54.037L226.58 55.4512C227.752 56.6228 229.651 56.6228 230.823 55.4512L229.408 54.037ZM240.378 43.0675L229.408 54.037L230.823 55.4512L241.792 44.4817L240.378 43.0675ZM252.828 54.1029L241.792 43.0675L240.378 44.4817L251.413 55.5171L252.828 54.1029ZM254.242 54.1029C253.851 54.4934 253.218 54.4934 252.828 54.1029L251.413 55.5171C252.585 56.6886 254.484 56.6886 255.656 55.5171L254.242 54.1029ZM257.963 50.3818L254.242 54.1029L255.656 55.5171L259.377 51.7961L257.963 50.3818ZM257.963 48.9676C258.353 49.3582 258.353 49.9913 257.963 50.3818L259.377 51.7961C260.549 50.6245 260.549 48.725 259.377 47.5534L257.963 48.9676ZM246.927 37.9323L257.963 48.9676L259.377 47.5534L248.342 36.518L246.927 37.9323ZM258.017 25.4281L246.927 36.518L248.342 37.9323L259.432 26.8423L258.017 25.4281Z" fill="#3E7BFA" mask="url(#path-79-inside-1_906_1872)"/>
<defs>
<filter id="filter0_d_906_1872" x="73.0117" y="40.0129" width="128" height="173" filterUnits="userSpaceOnUse" color-interpolation-filters="sRGB">
<feFlood flood-opacity="0" result="BackgroundImageFix"/>
<feColorMatrix in="SourceAlpha" type="matrix" values="0 0 0 0 0 0 0 0 0 0 0 0 0 0 0 0 0 0 127 0" result="hardAlpha"/>
<feOffset dx="4" dy="4"/>
<feComposite in2="hardAlpha" operator="out"/>
<feColorMatrix type="matrix" values="0 0 0 0 0.343333 0 0 0 0 0.347421 0 0 0 0 0.429167 0 0 0 1 0"/>
<feBlend mode="normal" in2="BackgroundImageFix" result="effect1_dropShadow_906_1872"/>
<feBlend mode="normal" in="SourceGraphic" in2="effect1_dropShadow_906_1872" result="shape"/>
</filter>
<linearGradient id="paint0_linear_906_1872" x1="210.5" y1="228" x2="46.5" y2="-7.50002" gradientUnits="userSpaceOnUse">
<stop stop-color="white"/>
<stop offset="1" stop-color="white" stop-opacity="0"/>
</linearGradient>
</defs>
</svg>
