<svg width="322" height="322" viewBox="0 0 322 322" fill="none" xmlns="http://www.w3.org/2000/svg">
<path d="M285.398 161.236C285.398 229.85 229.776 285.473 161.162 285.473C92.5483 285.473 36.9258 229.85 36.9258 161.236C36.9258 92.6225 92.5483 37 161.162 37C229.776 37 285.398 92.6225 285.398 161.236Z" fill="#E2E4E9"/>
<path d="M72 106.187L187.077 60L250.025 216.839L134.948 263.026L72 106.187Z" fill="white"/>
<g filter="url(#filter0_d_914_6061)">
<rect x="99.0117" y="77.0129" width="124" height="169" fill="white"/>
<rect x="99.5117" y="77.5129" width="123" height="168" stroke="#E2E4E9"/>
</g>
<rect x="159.012" y="105.013" width="48" height="10" rx="2" fill="#667085"/>
<rect x="115.012" y="131.013" width="92" height="10" rx="2" fill="#D0D5DD"/>
<path d="M115.012 159.013C115.012 157.908 115.907 157.013 117.012 157.013H205.012C206.116 157.013 207.012 157.908 207.012 159.013V165.013C207.012 166.118 206.116 167.013 205.012 167.013H117.012C115.907 167.013 115.012 166.118 115.012 165.013V159.013Z" fill="#D0D5DD"/>
<rect x="115.012" y="183.013" width="92" height="10" rx="2" fill="#D0D5DD"/>
<rect x="115.012" y="209.013" width="92" height="10" rx="2" fill="#D0D5DD"/>
<circle cx="96.0442" cy="63.045" r="5.42309" stroke="#C7C9D9"/>
<circle cx="98.7362" cy="65.7373" r="5.38462" fill="#3E7BFA"/>
<circle cx="54.9116" cy="142.231" r="1" transform="rotate(45.9703 54.9116 142.231)" fill="black"/>
<circle cx="61.8628" cy="149.421" r="1" transform="rotate(45.9703 61.8628 149.421)" fill="#3E7BFA"/>
<circle cx="68.812" cy="156.611" r="1" transform="rotate(45.9703 68.812 156.611)" fill="black"/>
<circle cx="75.7632" cy="163.8" r="1" transform="rotate(45.9703 75.7632 163.8)" fill="black"/>
<circle cx="82.7124" cy="170.99" r="1" transform="rotate(45.9703 82.7124 170.99)" fill="black"/>
<circle cx="49.3764" cy="147.582" r="1" transform="rotate(45.9703 49.3764 147.582)" fill="black"/>
<circle cx="56.3276" cy="154.772" r="1" transform="rotate(45.9703 56.3276 154.772)" fill="#3E7BFA"/>
<circle cx="63.2768" cy="161.962" r="1" transform="rotate(45.9703 63.2768 161.962)" fill="black"/>
<circle cx="70.228" cy="169.152" r="1" transform="rotate(45.9703 70.228 169.152)" fill="#3E7BFA"/>
<circle cx="77.1772" cy="176.341" r="1" transform="rotate(45.9703 77.1772 176.341)" fill="#3E7BFA"/>
<circle cx="43.8413" cy="152.933" r="1" transform="rotate(45.9703 43.8413 152.933)" fill="black"/>
<circle cx="50.7925" cy="160.123" r="1" transform="rotate(45.9703 50.7925 160.123)" fill="black"/>
<circle cx="57.7417" cy="167.313" r="1" transform="rotate(45.9703 57.7417 167.313)" fill="#3E7BFA"/>
<circle cx="64.6928" cy="174.503" r="1" transform="rotate(45.9703 64.6928 174.503)" fill="#3E7BFA"/>
<circle cx="71.6421" cy="181.693" r="1" transform="rotate(45.9703 71.6421 181.693)" fill="#3E7BFA"/>
<circle cx="38.3042" cy="158.285" r="1" transform="rotate(45.9703 38.3042 158.285)" fill="black"/>
<circle cx="45.2553" cy="165.474" r="1" transform="rotate(45.9703 45.2553 165.474)" fill="black"/>
<circle cx="52.2046" cy="172.664" r="1" transform="rotate(45.9703 52.2046 172.664)" fill="#3E7BFA"/>
<circle cx="59.1557" cy="179.854" r="1" transform="rotate(45.9703 59.1557 179.854)" fill="black"/>
<circle cx="66.105" cy="187.044" r="1" transform="rotate(45.9703 66.105 187.044)" fill="black"/>
<circle cx="32.769" cy="163.636" r="1" transform="rotate(45.9703 32.769 163.636)" fill="black"/>
<circle cx="39.7202" cy="170.825" r="1" transform="rotate(45.9703 39.7202 170.825)" fill="#3E7BFA"/>
<circle cx="46.6694" cy="178.015" r="1" transform="rotate(45.9703 46.6694 178.015)" fill="black"/>
<circle cx="53.6206" cy="185.205" r="1" transform="rotate(45.9703 53.6206 185.205)" fill="black"/>
<circle cx="60.5698" cy="192.395" r="1" transform="rotate(45.9703 60.5698 192.395)" fill="black"/>
<circle cx="27.2339" cy="168.987" r="1" transform="rotate(45.9703 27.2339 168.987)" fill="black"/>
<circle cx="34.185" cy="176.177" r="1" transform="rotate(45.9703 34.185 176.177)" fill="black"/>
<circle cx="41.1343" cy="183.366" r="1" transform="rotate(45.9703 41.1343 183.366)" fill="black"/>
<circle cx="48.0854" cy="190.556" r="1" transform="rotate(45.9703 48.0854 190.556)" fill="#3E7BFA"/>
<circle cx="55.0346" cy="197.746" r="1" transform="rotate(45.9703 55.0346 197.746)" fill="black"/>
<circle cx="253.029" cy="238.353" r="1" fill="black"/>
<circle cx="263.029" cy="238.353" r="1" fill="black"/>
<circle cx="273.029" cy="238.353" r="1" fill="black"/>
<circle cx="283.029" cy="238.353" r="1" fill="black"/>
<circle cx="293.029" cy="238.353" r="1" fill="black"/>
<circle cx="253.029" cy="246.052" r="1" fill="black"/>
<circle cx="263.029" cy="246.052" r="1" fill="black"/>
<circle cx="273.029" cy="246.052" r="1" fill="black"/>
<circle cx="283.029" cy="246.052" r="1" fill="black"/>
<circle cx="293.029" cy="246.052" r="1" fill="black"/>
<circle cx="253.029" cy="253.751" r="1" fill="black"/>
<circle cx="263.029" cy="253.751" r="1" fill="black"/>
<circle cx="273.029" cy="253.751" r="1" fill="black"/>
<circle cx="283.029" cy="253.751" r="1" fill="black"/>
<circle cx="293.029" cy="253.751" r="1" fill="black"/>
<circle cx="253.029" cy="261.45" r="1" fill="black"/>
<circle cx="263.029" cy="261.45" r="1" fill="black"/>
<circle cx="273.029" cy="261.45" r="1" fill="black"/>
<circle cx="283.029" cy="261.45" r="1" fill="black"/>
<circle cx="293.029" cy="261.45" r="1" fill="black"/>
<circle cx="253.029" cy="269.149" r="1" fill="black"/>
<circle cx="263.029" cy="269.149" r="1" fill="black"/>
<circle cx="273.029" cy="269.149" r="1" fill="black"/>
<circle cx="283.029" cy="269.149" r="1" fill="black"/>
<circle cx="293.029" cy="269.149" r="1" fill="black"/>
<circle cx="253.029" cy="276.849" r="1" fill="black"/>
<circle cx="263.029" cy="276.849" r="1" fill="black"/>
<circle cx="273.029" cy="276.849" r="1" fill="black"/>
<circle cx="283.029" cy="276.849" r="1" fill="black"/>
<circle cx="293.029" cy="276.849" r="1" fill="black"/>
<rect x="248.2" y="234.2" width="38.6" height="38.6" stroke="#3E7BFA" stroke-width="0.4"/>
<rect x="103.086" y="231.175" width="16.6559" height="9.30101" transform="rotate(-45 103.086 231.175)" fill="#C7C9D9"/>
<path d="M105.266 223.536L117.209 235.48L84.5646 268.125C83.0025 269.687 80.4698 269.687 78.9077 268.125L72.6208 261.838C71.0587 260.276 71.0587 257.743 72.6208 256.181L105.266 223.536Z" fill="#C7C9D9"/>
<circle cx="146.206" cy="192.391" r="38.3914" fill="white" fill-opacity="0.32" stroke="#C7C9D9" stroke-width="8"/>
<path d="M76.3125 252.404L88.3801 264.471L83.8959 268.956C82.3338 270.518 79.8012 270.518 78.2391 268.956L71.8283 262.545C70.2662 260.983 70.2662 258.45 71.8283 256.888L76.3125 252.404Z" fill="#555770"/>
<path fill-rule="evenodd" clip-rule="evenodd" d="M164.828 180.657C165.609 179.876 165.609 178.609 164.828 177.828L160.586 173.586C159.805 172.805 158.538 172.805 157.757 173.586L145.672 185.672L133.657 173.657C132.876 172.876 131.609 172.876 130.828 173.657L126.586 177.899C125.805 178.681 125.805 179.947 126.586 180.728L138.601 192.743L126.645 204.698C125.864 205.48 125.864 206.746 126.645 207.527L130.887 211.77C131.668 212.551 132.935 212.551 133.716 211.77L145.672 199.814L157.698 211.841C158.48 212.622 159.746 212.622 160.527 211.841L164.77 207.598C165.551 206.817 165.551 205.551 164.77 204.77L152.743 192.743L164.828 180.657Z" fill="black"/>
<path fill-rule="evenodd" clip-rule="evenodd" d="M283.799 70.5451C284.58 69.7641 284.58 68.4978 283.799 67.7167L280.078 63.9957C279.297 63.2146 278.03 63.2147 277.249 63.9957L266.159 75.0856L255.135 64.0615C254.354 63.2805 253.088 63.2805 252.307 64.0615L248.586 67.7825C247.805 68.5636 247.805 69.8299 248.586 70.611L259.61 81.6351L248.64 92.6046C247.859 93.3857 247.859 94.652 248.64 95.433L252.361 99.1541C253.142 99.9351 254.409 99.9351 255.19 99.154L266.159 88.1845L277.195 99.2199C277.976 100.001 279.242 100.001 280.023 99.2199L283.744 95.4989C284.525 94.7178 284.525 93.4515 283.744 92.6704L272.709 81.6351L283.799 70.5451Z" fill="black"/>
<mask id="path-79-inside-1_914_6061" fill="white">
<path fill-rule="evenodd" clip-rule="evenodd" d="M284.724 63.1352C285.506 62.3542 285.506 61.0879 284.724 60.3068L281.003 56.5858C280.222 55.8047 278.956 55.8047 278.175 56.5858L267.085 67.6757L256.061 56.6516C255.28 55.8706 254.014 55.8706 253.233 56.6516L249.512 60.3726C248.731 61.1537 248.731 62.42 249.512 63.2011L260.536 74.2251L249.566 85.1947C248.785 85.9757 248.785 87.2421 249.566 88.0231L253.287 91.7441C254.068 92.5252 255.334 92.5252 256.116 91.7441L267.085 80.7746L278.12 91.81C278.902 92.591 280.168 92.591 280.949 91.81L284.67 88.0889C285.451 87.3079 285.451 86.0416 284.67 85.2605L273.635 74.2251L284.724 63.1352Z"/>
</mask>
<path d="M284.724 60.3068L285.432 59.5997V59.5997L284.724 60.3068ZM284.724 63.1352L284.017 62.4281L284.017 62.4281L284.724 63.1352ZM281.003 56.5858L281.711 55.8787V55.8787L281.003 56.5858ZM278.175 56.5858L277.468 55.8787L277.468 55.8787L278.175 56.5858ZM267.085 67.6757L266.378 68.3828L267.085 69.0899L267.792 68.3828L267.085 67.6757ZM256.061 56.6516L256.768 55.9445L256.768 55.9445L256.061 56.6516ZM253.233 56.6516L252.525 55.9445V55.9445L253.233 56.6516ZM249.512 60.3726L248.804 59.6655H248.804L249.512 60.3726ZM249.512 63.2011L248.804 63.9082L248.804 63.9082L249.512 63.2011ZM260.536 74.2251L261.243 74.9323L261.95 74.2251L261.243 73.518L260.536 74.2251ZM249.566 85.1947L250.273 85.9018H250.273L249.566 85.1947ZM249.566 88.0231L248.859 88.7302H248.859L249.566 88.0231ZM253.287 91.7441L252.58 92.4512H252.58L253.287 91.7441ZM256.116 91.7441L255.408 91.037L255.408 91.037L256.116 91.7441ZM267.085 80.7746L267.792 80.0675L267.085 79.3604L266.378 80.0675L267.085 80.7746ZM280.949 91.81L281.656 92.5171L280.949 91.81ZM284.67 85.2605L283.963 85.9676L283.963 85.9676L284.67 85.2605ZM273.635 74.2251L272.927 73.518L272.22 74.2251L272.927 74.9323L273.635 74.2251ZM284.017 61.0139C284.408 61.4044 284.408 62.0376 284.017 62.4281L285.432 63.8423C286.603 62.6708 286.603 60.7713 285.432 59.5997L284.017 61.0139ZM280.296 57.2929L284.017 61.0139L285.432 59.5997L281.711 55.8787L280.296 57.2929ZM278.882 57.2929C279.273 56.9024 279.906 56.9024 280.296 57.2929L281.711 55.8787C280.539 54.7071 278.639 54.7071 277.468 55.8787L278.882 57.2929ZM267.792 68.3828L278.882 57.2929L277.468 55.8787L266.378 66.9686L267.792 68.3828ZM255.354 57.3587L266.378 68.3828L267.792 66.9686L256.768 55.9445L255.354 57.3587ZM253.94 57.3587C254.33 56.9682 254.963 56.9682 255.354 57.3587L256.768 55.9445C255.597 54.7729 253.697 54.7729 252.525 55.9445L253.94 57.3587ZM250.219 61.0797L253.94 57.3587L252.525 55.9445L248.804 59.6655L250.219 61.0797ZM250.219 62.494C249.828 62.1034 249.828 61.4703 250.219 61.0797L248.804 59.6655C247.633 60.8371 247.633 62.7366 248.804 63.9082L250.219 62.494ZM261.243 73.518L250.219 62.494L248.804 63.9082L259.829 74.9323L261.243 73.518ZM250.273 85.9018L261.243 74.9323L259.829 73.518L248.859 84.4876L250.273 85.9018ZM250.273 87.316C249.883 86.9255 249.883 86.2923 250.273 85.9018L248.859 84.4876C247.687 85.6592 247.687 87.5587 248.859 88.7302L250.273 87.316ZM253.994 91.037L250.273 87.316L248.859 88.7302L252.58 92.4512L253.994 91.037ZM255.408 91.037C255.018 91.4276 254.385 91.4276 253.994 91.037L252.58 92.4512C253.752 93.6228 255.651 93.6228 256.823 92.4512L255.408 91.037ZM266.378 80.0675L255.408 91.037L256.823 92.4512L267.792 81.4817L266.378 80.0675ZM278.828 91.1029L267.792 80.0675L266.378 81.4817L277.413 92.5171L278.828 91.1029ZM280.242 91.1029C279.851 91.4934 279.218 91.4934 278.828 91.1029L277.413 92.5171C278.585 93.6886 280.484 93.6886 281.656 92.5171L280.242 91.1029ZM283.963 87.3818L280.242 91.1029L281.656 92.5171L285.377 88.7961L283.963 87.3818ZM283.963 85.9676C284.353 86.3582 284.353 86.9913 283.963 87.3818L285.377 88.7961C286.549 87.6245 286.549 85.725 285.377 84.5534L283.963 85.9676ZM272.927 74.9323L283.963 85.9676L285.377 84.5534L274.342 73.518L272.927 74.9323ZM284.017 62.4281L272.927 73.518L274.342 74.9323L285.432 63.8423L284.017 62.4281Z" fill="#3E7BFA" mask="url(#path-79-inside-1_914_6061)"/>
<defs>
<filter id="filter0_d_914_6061" x="99.0117" y="77.0129" width="128" height="173" filterUnits="userSpaceOnUse" color-interpolation-filters="sRGB">
<feFlood flood-opacity="0" result="BackgroundImageFix"/>
<feColorMatrix in="SourceAlpha" type="matrix" values="0 0 0 0 0 0 0 0 0 0 0 0 0 0 0 0 0 0 127 0" result="hardAlpha"/>
<feOffset dx="4" dy="4"/>
<feComposite in2="hardAlpha" operator="out"/>
<feColorMatrix type="matrix" values="0 0 0 0 0.886275 0 0 0 0 0.894118 0 0 0 0 0.913725 0 0 0 1 0"/>
<feBlend mode="normal" in2="BackgroundImageFix" result="effect1_dropShadow_914_6061"/>
<feBlend mode="normal" in="SourceGraphic" in2="effect1_dropShadow_914_6061" result="shape"/>
</filter>
</defs>
</svg>
