<svg width="286" height="249" viewBox="0 0 286 249" fill="none" xmlns="http://www.w3.org/2000/svg">
<path d="M269.398 124.236C269.398 191.193 215.119 245.473 148.162 245.473C81.2051 245.473 26.9258 191.193 26.9258 124.236C26.9258 57.2793 81.2051 3 148.162 3C215.119 3 269.398 57.2793 269.398 124.236Z" stroke="url(#paint0_linear_644_922)" stroke-opacity="0.4" stroke-width="6"/>
<path d="M224.958 56H70.5268C65.8176 56 62 59.8133 62 64.5173V176.094C62 184.611 62 184.611 70.5268 184.611H224.958C233.485 184.611 233.485 184.611 233.485 176.094V64.5173C233.485 59.8133 229.667 56 224.958 56Z" fill="#D0D5DD" fill-opacity="0.64"/>
<path d="M87.6325 173.723C79.0604 173.723 72.1113 166.711 72.1113 158.062C72.1113 149.413 79.0604 142.401 87.6325 142.401C96.2047 142.401 103.154 149.413 103.154 158.062C103.154 166.711 96.2047 173.723 87.6325 173.723ZM87.6664 157.996C88.8118 157.996 89.7403 157.072 89.7403 155.931C89.7403 154.79 88.8118 153.865 87.6664 153.865C86.5211 153.865 85.5926 154.79 85.5926 155.931C85.5926 157.072 86.5211 157.996 87.6664 157.996ZM87.6664 159.029C85.5905 159.029 83.9076 160.705 83.9076 162.773H91.4252C91.4252 160.705 89.7424 159.029 87.6664 159.029Z" fill="#232D42"/>
<path d="M61.8496 62.3925C61.8496 55.1189 61.8496 55.1189 69.1294 55.1189H226.386C233.666 55.1189 233.666 55.1189 233.666 62.3925V69.6661H61.8496V62.3925Z" fill="#28293D"/>
<rect x="193.656" y="116.362" width="25.3722" height="8.74903" rx="1" fill="#3E7BFA"/>
<rect x="116.666" y="139.985" width="69.9923" height="6.12432" rx="1" fill="#28293D"/>
<rect x="75.5449" y="77.8665" width="111.113" height="47.2448" rx="1" fill="#D0D5DD"/>
<rect x="116.666" y="153.108" width="87.4903" height="6.12432" rx="1" fill="#D0D5DD"/>
<rect x="116.666" y="166.232" width="102.364" height="6.12432" rx="1" fill="#D0D5DD"/>
<circle cx="71.1696" cy="63.6247" r="2.62471" fill="#05A660"/>
<circle cx="85.6677" cy="63.6247" r="2.62471" fill="#FFCC00"/>
<circle cx="78.4196" cy="63.6247" r="2.62471" fill="#3E7BFA"/>
<circle cx="70.0442" cy="26.0449" r="5.42309" stroke="#C7C9D9"/>
<circle cx="72.7362" cy="28.7372" r="5.38462" fill="#3E7BFA"/>
<circle cx="28.9116" cy="105.231" r="1" transform="rotate(45.9703 28.9116 105.231)" fill="#C7C9D9"/>
<circle cx="35.8628" cy="112.421" r="1" transform="rotate(45.9703 35.8628 112.421)" fill="#3E7BFA"/>
<circle cx="42.812" cy="119.611" r="1" transform="rotate(45.9703 42.812 119.611)" fill="#C7C9D9"/>
<circle cx="49.7632" cy="126.8" r="1" transform="rotate(45.9703 49.7632 126.8)" fill="#C7C9D9"/>
<circle cx="56.7124" cy="133.99" r="1" transform="rotate(45.9703 56.7124 133.99)" fill="#C7C9D9"/>
<circle cx="23.3764" cy="110.582" r="1" transform="rotate(45.9703 23.3764 110.582)" fill="#C7C9D9"/>
<circle cx="30.3276" cy="117.772" r="1" transform="rotate(45.9703 30.3276 117.772)" fill="#3E7BFA"/>
<circle cx="37.2768" cy="124.962" r="1" transform="rotate(45.9703 37.2768 124.962)" fill="#C7C9D9"/>
<circle cx="44.228" cy="132.152" r="1" transform="rotate(45.9703 44.228 132.152)" fill="#3E7BFA"/>
<circle cx="51.1772" cy="139.341" r="1" transform="rotate(45.9703 51.1772 139.341)" fill="#3E7BFA"/>
<circle cx="17.8413" cy="115.933" r="1" transform="rotate(45.9703 17.8413 115.933)" fill="#C7C9D9"/>
<circle cx="24.7925" cy="123.123" r="1" transform="rotate(45.9703 24.7925 123.123)" fill="#C7C9D9"/>
<circle cx="31.7417" cy="130.313" r="1" transform="rotate(45.9703 31.7417 130.313)" fill="#3E7BFA"/>
<circle cx="38.6928" cy="137.503" r="1" transform="rotate(45.9703 38.6928 137.503)" fill="#3E7BFA"/>
<circle cx="45.6421" cy="144.692" r="1" transform="rotate(45.9703 45.6421 144.692)" fill="#3E7BFA"/>
<circle cx="12.3042" cy="121.284" r="1" transform="rotate(45.9703 12.3042 121.284)" fill="#C7C9D9"/>
<circle cx="19.2553" cy="128.474" r="1" transform="rotate(45.9703 19.2553 128.474)" fill="#C7C9D9"/>
<circle cx="26.2046" cy="135.664" r="1" transform="rotate(45.9703 26.2046 135.664)" fill="#3E7BFA"/>
<circle cx="33.1557" cy="142.854" r="1" transform="rotate(45.9703 33.1557 142.854)" fill="#C7C9D9"/>
<circle cx="40.105" cy="150.044" r="1" transform="rotate(45.9703 40.105 150.044)" fill="#C7C9D9"/>
<circle cx="6.76902" cy="126.635" r="1" transform="rotate(45.9703 6.76902 126.635)" fill="#C7C9D9"/>
<circle cx="13.7202" cy="133.825" r="1" transform="rotate(45.9703 13.7202 133.825)" fill="#3E7BFA"/>
<circle cx="20.6694" cy="141.015" r="1" transform="rotate(45.9703 20.6694 141.015)" fill="#C7C9D9"/>
<circle cx="27.6206" cy="148.205" r="1" transform="rotate(45.9703 27.6206 148.205)" fill="#C7C9D9"/>
<circle cx="34.5698" cy="155.395" r="1" transform="rotate(45.9703 34.5698 155.395)" fill="#C7C9D9"/>
<circle cx="1.23386" cy="131.987" r="1" transform="rotate(45.9703 1.23386 131.987)" fill="#C7C9D9"/>
<circle cx="8.18503" cy="139.176" r="1" transform="rotate(45.9703 8.18503 139.176)" fill="#C7C9D9"/>
<circle cx="15.1343" cy="146.366" r="1" transform="rotate(45.9703 15.1343 146.366)" fill="#C7C9D9"/>
<circle cx="22.0854" cy="153.556" r="1" transform="rotate(45.9703 22.0854 153.556)" fill="#3E7BFA"/>
<circle cx="29.0346" cy="160.746" r="1" transform="rotate(45.9703 29.0346 160.746)" fill="#C7C9D9"/>
<circle cx="227.029" cy="201.353" r="1" fill="#C7C9D9"/>
<circle cx="237.029" cy="201.353" r="1" fill="#C7C9D9"/>
<circle cx="247.029" cy="201.353" r="1" fill="#C7C9D9"/>
<circle cx="257.029" cy="201.353" r="1" fill="#C7C9D9"/>
<circle cx="267.029" cy="201.353" r="1" fill="#C7C9D9"/>
<circle cx="227.029" cy="209.052" r="1" fill="#C7C9D9"/>
<circle cx="237.029" cy="209.052" r="1" fill="#C7C9D9"/>
<circle cx="247.029" cy="209.052" r="1" fill="#C7C9D9"/>
<circle cx="257.029" cy="209.052" r="1" fill="#C7C9D9"/>
<circle cx="267.029" cy="209.052" r="1" fill="#C7C9D9"/>
<circle cx="227.029" cy="216.751" r="1" fill="#C7C9D9"/>
<circle cx="237.029" cy="216.751" r="1" fill="#C7C9D9"/>
<circle cx="247.029" cy="216.751" r="1" fill="#C7C9D9"/>
<circle cx="257.029" cy="216.751" r="1" fill="#C7C9D9"/>
<circle cx="267.029" cy="216.751" r="1" fill="#C7C9D9"/>
<circle cx="227.029" cy="224.45" r="1" fill="#C7C9D9"/>
<circle cx="237.029" cy="224.45" r="1" fill="#C7C9D9"/>
<circle cx="247.029" cy="224.45" r="1" fill="#C7C9D9"/>
<circle cx="257.029" cy="224.45" r="1" fill="#C7C9D9"/>
<circle cx="267.029" cy="224.45" r="1" fill="#C7C9D9"/>
<circle cx="227.029" cy="232.149" r="1" fill="#C7C9D9"/>
<circle cx="237.029" cy="232.149" r="1" fill="#C7C9D9"/>
<circle cx="247.029" cy="232.149" r="1" fill="#C7C9D9"/>
<circle cx="257.029" cy="232.149" r="1" fill="#C7C9D9"/>
<circle cx="267.029" cy="232.149" r="1" fill="#C7C9D9"/>
<circle cx="227.029" cy="239.849" r="1" fill="#C7C9D9"/>
<circle cx="237.029" cy="239.849" r="1" fill="#C7C9D9"/>
<circle cx="247.029" cy="239.849" r="1" fill="#C7C9D9"/>
<circle cx="257.029" cy="239.849" r="1" fill="#C7C9D9"/>
<circle cx="267.029" cy="239.849" r="1" fill="#C7C9D9"/>
<rect x="222.2" y="197.2" width="38.6" height="38.6" stroke="#3E7BFA" stroke-width="0.4"/>
<rect x="77.0859" y="194.175" width="16.6559" height="9.30101" transform="rotate(-45 77.0859 194.175)" fill="#232D42"/>
<path d="M79.2656 186.536L91.2094 198.48L58.5646 231.125C57.0025 232.687 54.4698 232.687 52.9077 231.125L46.6208 224.838C45.0587 223.276 45.0587 220.743 46.6208 219.181L79.2656 186.536Z" fill="#232D42"/>
<circle cx="120.206" cy="155.391" r="38.3914" fill="white" fill-opacity="0.32" stroke="#232D42" stroke-width="8"/>
<path d="M50.3125 215.404L62.3801 227.471L57.8959 231.956C56.3338 233.518 53.8012 233.518 52.2391 231.956L45.8283 225.545C44.2662 223.983 44.2662 221.45 45.8283 219.888L50.3125 215.404Z" fill="#555770"/>
<path d="M258.597 73.7023C261.4 74.7442 264.502 74.6301 267.22 73.385C269.939 72.14 272.051 69.866 273.093 67.0633C274.135 64.2607 274.021 61.1589 272.776 58.4404C271.531 55.7219 269.257 53.6093 266.454 52.5674L262.526 63.1349L258.597 73.7023Z" fill="#3E7BFA"/>
<mask id="path-81-inside-1_644_922" fill="white">
<path d="M264.044 58.9024C261.241 57.8605 258.139 57.9746 255.421 59.2197C252.702 60.4648 250.59 62.7387 249.548 65.5414C248.506 68.3441 248.62 71.4458 249.865 74.1644C251.11 76.8829 253.384 78.9955 256.187 80.0374L260.115 69.4699L264.044 58.9024Z"/>
</mask>
<path d="M264.044 58.9024C261.241 57.8605 258.139 57.9746 255.421 59.2197C252.702 60.4648 250.59 62.7387 249.548 65.5414C248.506 68.3441 248.62 71.4458 249.865 74.1644C251.11 76.8829 253.384 78.9955 256.187 80.0374L260.115 69.4699L264.044 58.9024Z" stroke="#C7C9D9" stroke-width="2" mask="url(#path-81-inside-1_644_922)"/>
<defs>
<linearGradient id="paint0_linear_644_922" x1="223.5" y1="228" x2="59.5" y2="-7.50002" gradientUnits="userSpaceOnUse">
<stop stop-color="white"/>
<stop offset="1" stop-color="white" stop-opacity="0"/>
</linearGradient>
</defs>
</svg>
