<svg width="286" height="249" viewBox="0 0 286 249" fill="none" xmlns="http://www.w3.org/2000/svg">
<path d="M272.398 124.236C272.398 192.85 216.776 248.473 148.162 248.473C79.5483 248.473 23.9258 192.85 23.9258 124.236C23.9258 55.6225 79.5483 0 148.162 0C216.776 0 272.398 55.6225 272.398 124.236Z" fill="#F0F2F5"/>
<path d="M190.092 30.6216L160.223 34.1213H191.72L190.092 30.6216Z" fill="#F2F2F2"/>
<path d="M100.454 171.098C91.8817 171.098 84.9326 164.086 84.9326 155.437C84.9326 146.788 91.8817 139.777 100.454 139.777C109.026 139.777 115.975 146.788 115.975 155.437C115.975 164.086 109.026 171.098 100.454 171.098ZM100.488 155.372C101.633 155.372 102.562 154.447 102.562 153.306C102.562 152.165 101.633 151.241 100.488 151.241C99.3424 151.241 98.4139 152.165 98.4139 153.306C98.4139 154.447 99.3424 155.372 100.488 155.372ZM100.488 156.404C98.4118 156.404 96.7289 158.081 96.7289 160.148H104.247C104.247 158.081 102.564 156.404 100.488 156.404Z" fill="#E2E2E2"/>
<path d="M224.808 55.1189H70.3769C65.6677 55.1189 61.8501 58.9322 61.8501 63.6362V175.212C61.8501 183.73 61.8501 183.73 70.3769 183.73H224.808C233.335 183.73 233.335 183.73 233.335 175.212V63.6362C233.335 58.9322 229.517 55.1189 224.808 55.1189Z" fill="white"/>
<path d="M87.6335 173.723C79.0614 173.723 72.1123 166.711 72.1123 158.062C72.1123 149.413 79.0614 142.402 87.6335 142.402C96.2056 142.402 103.155 149.413 103.155 158.062C103.155 166.711 96.2056 173.723 87.6335 173.723ZM87.6674 157.996C88.8128 157.996 89.7412 157.072 89.7412 155.931C89.7412 154.79 88.8128 153.865 87.6674 153.865C86.5221 153.865 85.5936 154.79 85.5936 155.931C85.5936 157.072 86.5221 157.996 87.6674 157.996ZM87.6674 159.029C85.5915 159.029 83.9086 160.705 83.9086 162.773H91.4262C91.4262 160.705 89.7434 159.029 87.6674 159.029Z" fill="#667085"/>
<path d="M61.8501 62.3925C61.8501 55.1189 61.8501 55.1189 69.1299 55.1189H226.386C233.666 55.1189 233.666 55.1189 233.666 62.3925V69.6661H61.8501V62.3925Z" fill="#667085"/>
<rect x="193.657" y="116.362" width="25.3722" height="8.74903" rx="1" fill="#3E7BFA"/>
<rect x="116.666" y="139.985" width="69.9923" height="6.12432" rx="1" fill="#667085"/>
<rect x="75.5454" y="77.8664" width="111.113" height="47.2448" rx="1" fill="#E2E2E2"/>
<rect x="116.666" y="153.108" width="87.4903" height="6.12432" rx="1" fill="#E2E2E2"/>
<rect x="116.666" y="166.232" width="102.364" height="6.12432" rx="1" fill="#E2E2E2"/>
<circle cx="71.1706" cy="63.6247" r="2.62471" fill="#D1D1D1"/>
<circle cx="85.6696" cy="63.6247" r="2.62471" fill="#FFD569"/>
<circle cx="78.4201" cy="63.6247" r="2.62471" fill="#ADB7FF"/>
<circle cx="70.0452" cy="26.045" r="5.42309" stroke="black"/>
<circle cx="72.7376" cy="28.7373" r="5.38462" fill="#3E7BFA"/>
<circle cx="28.9116" cy="105.231" r="1" transform="rotate(45.9703 28.9116 105.231)" fill="black"/>
<circle cx="35.8618" cy="112.421" r="1" transform="rotate(45.9703 35.8618 112.421)" fill="#3E7BFA"/>
<circle cx="42.812" cy="119.611" r="1" transform="rotate(45.9703 42.812 119.611)" fill="black"/>
<circle cx="49.7627" cy="126.8" r="1" transform="rotate(45.9703 49.7627 126.8)" fill="black"/>
<circle cx="56.7129" cy="133.99" r="1" transform="rotate(45.9703 56.7129 133.99)" fill="black"/>
<circle cx="23.376" cy="110.582" r="1" transform="rotate(45.9703 23.376 110.582)" fill="black"/>
<circle cx="30.3261" cy="117.772" r="1" transform="rotate(45.9703 30.3261 117.772)" fill="#3E7BFA"/>
<circle cx="37.2763" cy="124.962" r="1" transform="rotate(45.9703 37.2763 124.962)" fill="black"/>
<circle cx="44.227" cy="132.152" r="1" transform="rotate(45.9703 44.227 132.152)" fill="#3E7BFA"/>
<circle cx="51.1772" cy="139.341" r="1" transform="rotate(45.9703 51.1772 139.341)" fill="#3E7BFA"/>
<circle cx="17.8403" cy="115.933" r="1" transform="rotate(45.9703 17.8403 115.933)" fill="black"/>
<circle cx="24.7905" cy="123.123" r="1" transform="rotate(45.9703 24.7905 123.123)" fill="black"/>
<circle cx="31.7407" cy="130.313" r="1" transform="rotate(45.9703 31.7407 130.313)" fill="#3E7BFA"/>
<circle cx="38.6914" cy="137.503" r="1" transform="rotate(45.9703 38.6914 137.503)" fill="#3E7BFA"/>
<circle cx="45.6416" cy="144.693" r="1" transform="rotate(45.9703 45.6416 144.693)" fill="#3E7BFA"/>
<circle cx="12.3052" cy="121.284" r="1" transform="rotate(45.9703 12.3052 121.284)" fill="black"/>
<circle cx="19.2553" cy="128.474" r="1" transform="rotate(45.9703 19.2553 128.474)" fill="black"/>
<circle cx="26.2055" cy="135.664" r="1" transform="rotate(45.9703 26.2055 135.664)" fill="#3E7BFA"/>
<circle cx="33.1562" cy="142.854" r="1" transform="rotate(45.9703 33.1562 142.854)" fill="black"/>
<circle cx="40.1064" cy="150.044" r="1" transform="rotate(45.9703 40.1064 150.044)" fill="black"/>
<circle cx="6.76951" cy="126.636" r="1" transform="rotate(45.9703 6.76951 126.636)" fill="black"/>
<circle cx="13.7197" cy="133.825" r="1" transform="rotate(45.9703 13.7197 133.825)" fill="#3E7BFA"/>
<circle cx="20.6699" cy="141.015" r="1" transform="rotate(45.9703 20.6699 141.015)" fill="black"/>
<circle cx="27.6206" cy="148.205" r="1" transform="rotate(45.9703 27.6206 148.205)" fill="black"/>
<circle cx="34.5708" cy="155.395" r="1" transform="rotate(45.9703 34.5708 155.395)" fill="black"/>
<circle cx="1.23386" cy="131.987" r="1" transform="rotate(45.9703 1.23386 131.987)" fill="black"/>
<circle cx="8.18406" cy="139.177" r="1" transform="rotate(45.9703 8.18406 139.177)" fill="black"/>
<circle cx="15.1343" cy="146.366" r="1" transform="rotate(45.9703 15.1343 146.366)" fill="black"/>
<circle cx="22.0849" cy="153.556" r="1" transform="rotate(45.9703 22.0849 153.556)" fill="#3E7BFA"/>
<circle cx="29.0351" cy="160.746" r="1" transform="rotate(45.9703 29.0351 160.746)" fill="black"/>
<rect x="75.4893" y="204.175" width="16.6559" height="9.30101" transform="rotate(-45 75.4893 204.175)" fill="#C6C6C6"/>
<path d="M77.6689 196.536L89.6127 208.48L56.9679 241.125C55.4058 242.687 52.8731 242.687 51.311 241.125L45.0241 234.838C43.462 233.276 43.462 230.743 45.0241 229.181L77.6689 196.536Z" fill="#C6C6C6"/>
<circle cx="118.609" cy="165.391" r="38.3914" fill="white" fill-opacity="0.32" stroke="#C6C6C6" stroke-width="8"/>
<path d="M49.626 224.797L61.5543 236.725L56.7567 241.523C55.1946 243.085 52.6619 243.085 51.0998 241.523L44.8283 235.251C43.2662 233.689 43.2662 231.157 44.8283 229.594L49.626 224.797Z" fill="#667085"/>
<circle cx="227.029" cy="201.353" r="1" fill="black"/>
<circle cx="237.029" cy="201.353" r="1" fill="black"/>
<circle cx="247.029" cy="201.353" r="1" fill="black"/>
<circle cx="257.029" cy="201.353" r="1" fill="black"/>
<circle cx="267.029" cy="201.353" r="1" fill="black"/>
<circle cx="227.029" cy="209.052" r="1" fill="black"/>
<circle cx="237.029" cy="209.052" r="1" fill="black"/>
<circle cx="247.029" cy="209.052" r="1" fill="black"/>
<circle cx="257.029" cy="209.052" r="1" fill="black"/>
<circle cx="267.029" cy="209.052" r="1" fill="black"/>
<circle cx="227.029" cy="216.751" r="1" fill="black"/>
<circle cx="237.029" cy="216.751" r="1" fill="black"/>
<circle cx="247.029" cy="216.751" r="1" fill="black"/>
<circle cx="257.029" cy="216.751" r="1" fill="black"/>
<circle cx="267.029" cy="216.751" r="1" fill="black"/>
<circle cx="227.029" cy="224.45" r="1" fill="black"/>
<circle cx="237.029" cy="224.45" r="1" fill="black"/>
<circle cx="247.029" cy="224.45" r="1" fill="black"/>
<circle cx="257.029" cy="224.45" r="1" fill="black"/>
<circle cx="267.029" cy="224.45" r="1" fill="black"/>
<circle cx="227.029" cy="232.149" r="1" fill="black"/>
<circle cx="237.029" cy="232.149" r="1" fill="black"/>
<circle cx="247.029" cy="232.149" r="1" fill="black"/>
<circle cx="257.029" cy="232.149" r="1" fill="black"/>
<circle cx="267.029" cy="232.149" r="1" fill="black"/>
<circle cx="227.029" cy="239.849" r="1" fill="black"/>
<circle cx="237.029" cy="239.849" r="1" fill="black"/>
<circle cx="247.029" cy="239.849" r="1" fill="black"/>
<circle cx="257.029" cy="239.849" r="1" fill="black"/>
<circle cx="267.029" cy="239.849" r="1" fill="black"/>
<rect x="222.2" y="197.2" width="38.6" height="38.6" stroke="#3E7BFA" stroke-width="0.4"/>
<path d="M258.597 73.7025C261.4 74.7443 264.502 74.6302 267.22 73.3852C269.939 72.1401 272.051 69.8661 273.093 67.0634C274.135 64.2608 274.021 61.159 272.776 58.4405C271.531 55.722 269.257 53.6094 266.454 52.5675L262.526 63.135L258.597 73.7025Z" fill="#3E7BFA"/>
<mask id="path-83-inside-1_192_788" fill="white">
<path d="M264.044 58.9025C261.241 57.8606 258.14 57.9747 255.421 59.2198C252.703 60.4648 250.59 62.7388 249.548 65.5415C248.506 68.3441 248.62 71.4459 249.865 74.1644C251.11 76.8829 253.384 78.9955 256.187 80.0374L260.116 69.4699L264.044 58.9025Z"/>
</mask>
<path d="M264.044 58.9025C261.241 57.8606 258.14 57.9747 255.421 59.2198C252.703 60.4648 250.59 62.7388 249.548 65.5415C248.506 68.3441 248.62 71.4459 249.865 74.1644C251.11 76.8829 253.384 78.9955 256.187 80.0374L260.116 69.4699L264.044 58.9025Z" stroke="black" stroke-width="2" mask="url(#path-83-inside-1_192_788)"/>
</svg>
