<svg width="22" height="22" viewBox="0 0 22 22" fill="none" xmlns="http://www.w3.org/2000/svg">
<path fill-rule="evenodd" clip-rule="evenodd" d="M11.0005 3.66666C11.3682 3.66666 11.7307 3.69389 12.0837 3.74628L12.6159 5.35856C13.0821 5.49161 13.5252 5.68123 13.9359 5.92009L15.4654 5.18256C16.0071 5.59847 16.489 6.08875 16.8954 6.6377L16.1307 8.15361C16.3622 8.56847 16.5445 9.01475 16.6692 9.48409L18.272 10.0425C18.3603 10.7203 18.3543 11.4071 18.2542 12.0832L16.6419 12.6154C16.5098 13.0768 16.3212 13.5202 16.0804 13.9354L16.8179 15.4649C16.4014 16.0067 15.9117 16.488 15.3628 16.8949L13.8469 16.1302C13.4275 16.3644 12.9806 16.5452 12.5164 16.6687L11.958 18.2715C11.2802 18.3598 10.5934 18.3538 9.91725 18.2537L9.38506 16.6414C8.92363 16.5093 8.48027 16.3207 8.06506 16.0799L6.53553 16.8174C5.99377 16.401 5.5125 15.9112 5.10553 15.3623L5.8703 13.8464C5.63669 13.4268 5.45583 12.9799 5.33182 12.5159L3.72896 11.9565C3.64075 11.279 3.64674 10.5926 3.74677 9.91675L5.35906 9.38456C5.49211 8.91837 5.68172 8.47523 5.92058 8.06456L5.18306 6.53504C5.59953 5.99327 6.08926 5.512 6.6382 5.10504L8.15411 5.8698C8.57345 5.63562 9.0204 5.45473 9.48458 5.33132L10.044 3.72847C10.3612 3.6872 10.6807 3.66656 11.0005 3.66666Z" stroke="white" stroke-width="0.933" stroke-linecap="round" stroke-linejoin="round"/>
<path d="M11.0003 14.1429C12.736 14.1429 14.1431 12.7358 14.1431 11C14.1431 9.26425 12.736 7.85715 11.0003 7.85715C9.26453 7.85715 7.85742 9.26425 7.85742 11C7.85742 12.7358 9.26453 14.1429 11.0003 14.1429Z" stroke="white" stroke-linecap="round" stroke-linejoin="round"/>
</svg>
